<?xml version="1.0" encoding="utf-8"?>
<!-- Generator: Adobe Illustrator 16.0.0, SVG Export Plug-In . SVG Version: 6.00 Build 0)  -->
<!DOCTYPE svg PUBLIC "-//W3C//DTD SVG 1.1//EN" "http://www.w3.org/Graphics/SVG/1.1/DTD/svg11.dtd">
<svg version="1.1" id="Capa_1" xmlns="http://www.w3.org/2000/svg" xmlns:xlink="http://www.w3.org/1999/xlink" x="0px" y="0px"
	 width="141.669px" height="142.509px" viewBox="185.003 185.563 141.669 142.509"
	 enable-background="new 185.003 185.563 141.669 142.509" xml:space="preserve">
<g>
	<path fill="#DEDEDE" d="M323.908,240.482c0-8.763-3.412-17.001-9.608-23.197l-20.495-20.496
		c-6.196-6.196-14.435-9.608-23.197-9.608l0,0h-47.501c-7.022,0-12.734,5.713-12.734,12.737v28.246
		c-5.237,0.965-10.244,3.467-14.286,7.509c-9.335,9.335-10.649,23.966-3.125,34.79c0.635,0.914,1.892,1.141,2.806,0.505
		s1.14-1.892,0.505-2.807c-6.409-9.22-5.288-21.683,2.665-29.637c4.383-4.383,10.211-6.796,16.41-6.796s12.027,2.414,16.41,6.796
		c5.764,5.764,8.063,13.943,6.151,21.88c-0.221,0.916,0.223,1.863,1.068,2.28l6.603,3.259l1.585,8.389
		c0.135,0.711,0.64,1.296,1.325,1.531l10.698,3.688l4.044,11.077c0.184,0.503,0.56,0.912,1.044,1.138l5.39,2.502l-5.261,13.563
		l-39.428-39.429c-0.788-0.788-2.064-0.788-2.852,0c-0.787,0.787-0.787,2.063,0,2.851l38.325,38.324l-5.995,0.193l-31.741-31.74
		c-0.497-0.497-1.215-0.699-1.898-0.534c-6.457,1.557-13.269,0.286-18.692-3.483c-0.914-0.636-2.17-0.409-2.806,0.504
		c-0.636,0.915-0.41,2.171,0.504,2.807c3.213,2.234,6.841,3.721,10.62,4.41l0.209,30.615c0.037,5.284,3.321,9.999,8.174,11.732
		c1.373,0.49,2.813,0.738,4.283,0.738h88.066c7.021,0,12.734-5.712,12.734-12.733L323.908,240.482z M290.953,199.641l20.495,20.496
		c3.276,3.275,5.664,7.201,7.045,11.486c-3.514-3.642-8.441-5.91-13.89-5.91h-10.522c-4.8,0-8.704-3.905-8.704-8.704v-10.522
		c0-5.448-2.269-10.376-5.91-13.89C283.752,193.977,287.678,196.365,290.953,199.641L290.953,199.641z M311.173,320.786h-88.066
		c-1.006,0-1.991-0.169-2.927-0.504c-3.263-1.165-5.473-4.365-5.498-7.962l-0.206-30.157c2.052,0.065,4.12-0.1,6.165-0.503
		l31.579,31.578c0.379,0.379,0.892,0.591,1.426,0.591c0.021,0,0.043,0,0.064-0.001l11.52-0.371c0.808-0.026,1.522-0.532,1.814-1.286
		l7.063-18.207c0.385-0.991-0.066-2.11-1.03-2.558l-6.345-2.946l-4.087-11.194c-0.208-0.57-0.663-1.017-1.237-1.214l-10.498-3.619
		l-1.554-8.227c-0.118-0.622-0.521-1.152-1.089-1.433l-6.103-3.013c1.589-8.805-1.174-17.707-7.555-24.087
		c-5.549-5.549-12.917-8.197-20.203-7.947v-27.808c0-4.8,3.904-8.705,8.702-8.705h42.966c8.422,0,15.272,6.851,15.272,15.272v10.522
		c0,7.023,5.714,12.736,12.736,12.736h10.522c8.404,0,15.243,6.823,15.271,15.221v67.12
		C319.875,316.883,315.971,320.786,311.173,320.786L311.173,320.786z"/>
	<path fill="#DEDEDE" d="M303.794,247.801H292.78c-1.114,0-2.017,0.903-2.017,2.016c0,1.114,0.902,2.016,2.017,2.016h11.014
		c1.113,0,2.016-0.902,2.016-2.016C305.81,248.704,304.907,247.801,303.794,247.801z"/>
	<path fill="#DEDEDE" d="M285.817,249.817c0-1.113-0.902-2.016-2.016-2.016H246.87c-1.113,0-2.016,0.903-2.016,2.016
		c0,1.114,0.903,2.016,2.016,2.016h36.932C284.915,251.833,285.817,250.931,285.817,249.817z"/>
	<path fill="#DEDEDE" d="M303.793,258.525h-52.812c-1.113,0-2.016,0.903-2.016,2.017s0.903,2.016,2.016,2.016h52.812
		c1.113,0,2.017-0.902,2.017-2.016S304.906,258.525,303.793,258.525z"/>
	<path fill="#DEDEDE" d="M303.793,269.25h-46.018c-1.113,0-2.016,0.903-2.016,2.017s0.903,2.016,2.016,2.016h46.018
		c1.113,0,2.017-0.902,2.017-2.016S304.906,269.25,303.793,269.25z"/>
	<path fill="#DEDEDE" d="M259.433,220.071c0-1.114-0.903-2.016-2.017-2.016h-26.928c-1.114,0-2.016,0.902-2.016,2.016
		c0,1.113,0.902,2.016,2.016,2.016h26.928C258.529,222.087,259.433,221.184,259.433,220.071z"/>
	<path fill="#DEDEDE" d="M209.801,260.339c2.924,0,5.673-1.14,7.741-3.207c2.068-2.068,3.207-4.817,3.208-7.741
		c0-2.925-1.139-5.675-3.208-7.743c-2.068-2.068-4.817-3.207-7.742-3.207s-5.674,1.139-7.742,3.207
		c-2.068,2.067-3.207,4.817-3.207,7.742c0,2.924,1.139,5.674,3.207,7.742C204.126,259.2,206.876,260.34,209.801,260.339z
		 M216.717,249.39c0,1.847-0.72,3.583-2.026,4.89c-0.093,0.093-0.189,0.183-0.287,0.27v-10.321c0.098,0.087,0.194,0.177,0.287,0.27
		C215.998,245.806,216.718,247.542,216.717,249.39z M204.909,244.499c1.307-1.306,3.043-2.026,4.891-2.026
		c0.192,0,0.383,0.01,0.572,0.025v13.784c-0.189,0.016-0.379,0.025-0.571,0.025c-1.848,0-3.584-0.719-4.892-2.026
		c-1.306-1.306-2.025-3.043-2.025-4.891C202.884,247.541,203.603,245.805,204.909,244.499z"/>
</g>
</svg>
