<?xml version="1.0" encoding="utf-8"?>
<!-- Generator: Adobe Illustrator 23.0.6, SVG Export Plug-In . SVG Version: 6.00 Build 0)  -->
<svg version="1.1" xmlns="http://www.w3.org/2000/svg" xmlns:xlink="http://www.w3.org/1999/xlink" x="0px" y="0px" width="407.6px"
	 height="93.8px" viewBox="0 0 407.6 93.8" style="enable-background:new 0 0 407.6 93.8;" xml:space="preserve">
<style type="text/css">
	.st0{fill:#2567B7;}
	.st1{fill:none;stroke:#2567B7;stroke-width:3;stroke-miterlimit:10;}
	.st2{fill:url(#SVGID_1_);}
	.st3{fill:none;stroke:#2567B7;stroke-width:2;stroke-miterlimit:10;}
</style>
<g id="Layer_1">
	<g>
		<path class="st0" d="M3.9,71.2c-0.8,0-1.5-0.3-2.1-0.9c-0.6-0.6-0.9-1.3-0.9-2.1v0L0.8,18c0-0.5,0.3-1.2,0.8-1.9
			C2.2,15.4,2.9,15,3.8,15l12.7-0.1c3.8,0,7.3,0.6,10.3,1.9c3,1.2,5.4,3.1,7.2,5.6c1.8,2.5,2.7,5.7,2.7,9.5c0,4.4-0.9,8-2.8,10.7
			c-1.9,2.7-4.4,4.7-7.7,5.9c-3.3,1.2-7.1,1.9-11.4,2.1l-7.8,0.2l0,17.5v0c0,0.8-0.3,1.5-0.9,2.1C5.5,70.9,4.8,71.2,3.9,71.2z
			 M30.6,31.9c0-3.9-1.3-6.8-4-8.4C24,21.8,20.5,21,16.2,21H6.9l0,23.7l7.7-0.2c3.2-0.1,6-0.5,8.4-1.2c2.4-0.8,4.2-2,5.6-3.8
			C29.9,37.6,30.6,35.1,30.6,31.9z"/>
		<path class="st0" d="M61.7,29.4c2.9,0,5.5,0.8,7.7,2.5s4.3,3.4,6,5.3l0.4-5.1c0-0.8,0.2-1.4,0.6-2c0.4-0.5,1-0.8,1.8-0.8
			c0.8,0,1.4,0.3,2,0.8c0.5,0.5,0.8,1.2,0.8,2v36.4c0,0.8-0.3,1.4-0.8,2c-0.6,0.5-1.2,0.8-2,0.8c-0.8,0-1.4-0.3-2-0.8
			c-0.6-0.5-0.8-1.2-0.8-2v-4.6c-1.8,1.9-3.9,3.7-6.3,5.2c-2.4,1.6-5,2.3-7.7,2.3c-2.8,0-5.3-0.6-7.7-1.7c-2.4-1.1-4.4-2.7-6.2-4.6
			s-3.1-4.2-4.1-6.7c-1-2.5-1.5-5.1-1.5-7.9c0-2.7,0.5-5.4,1.5-7.9c1-2.5,2.4-4.8,4.1-6.8c1.8-2,3.9-3.5,6.3-4.7
			C56.2,30,58.9,29.4,61.7,29.4z M75.6,50.2c0-2.6-0.6-5-1.9-7.3c-1.2-2.2-2.9-4.1-5-5.5c-2.1-1.4-4.4-2.1-7-2.1
			c-2.6,0-4.9,0.7-7,2.1c-2.1,1.4-3.7,3.3-4.9,5.6c-1.2,2.3-1.8,4.7-1.8,7.3c0,2.6,0.6,5,1.8,7.3c1.2,2.3,2.8,4.1,4.8,5.5
			c2,1.4,4.3,2.1,6.9,2.1c2.6,0,4.9-0.7,7.1-2.2c2.1-1.4,3.9-3.3,5.1-5.6C75,55.3,75.6,52.8,75.6,50.2z"/>
		<path class="st0" d="M93.2,29.3c0.6,0,1.1,0.2,1.6,0.5c0.5,0.3,0.9,0.8,1.1,1.2l14.7,31.7l12.6-31.5c0.2-0.5,0.6-1,1.1-1.4
			c0.5-0.4,1.1-0.6,1.7-0.6c1,0,1.9,0.4,2.5,1.3s0.7,1.8,0.3,2.9L111,78.1c-0.8,1.9-1.8,3.9-3.1,5.9c-1.3,2-3,3.7-4.9,5.1
			c-2,1.4-4.3,2.1-7,2.1c-0.8,0-1.5-0.3-2.1-0.9C93.3,89.7,93,89,93,88.1c0-0.8,0.3-1.5,0.8-2.1c0.6-0.6,1.2-0.9,2-0.9
			c1.9-0.1,3.4-0.7,4.6-1.6s2.3-2.2,3.1-3.6c0.8-1.5,1.6-3,2.2-4.7c0.6-1.6,1.2-3.2,1.8-4.7L90.5,33.7c-0.2-0.4-0.3-0.9-0.3-1.3
			c0-0.8,0.3-1.5,0.9-2.1C91.7,29.6,92.4,29.3,93.2,29.3z"/>
		<path class="st0" d="M141.2,29.3c0.8,0,1.5,0.3,2,0.9c0.5,0.6,0.8,1.3,0.8,2.1l0.2,4.8c1-1.2,2.1-2.4,3.4-3.5
			c1.3-1.2,2.7-2.2,4.4-3c1.6-0.8,3.5-1.2,5.5-1.2c3.6,0,6.4,0.9,8.6,2.7c2.2,1.8,3.7,4.2,4.7,7.2c1,3,1.5,6.2,1.5,9.6l0,19.5
			c0,0.8-0.3,1.5-0.9,2.1c-0.6,0.6-1.3,0.9-2.1,0.9c-0.8,0-1.5-0.3-2.1-0.9c-0.6-0.6-0.9-1.3-0.9-2.2l0-19.5c0-2.4-0.2-4.6-0.7-6.6
			c-0.5-2-1.4-3.7-2.6-4.9c-1.3-1.3-3.1-1.9-5.4-1.9c-4.4,0-7.7,1.2-9.9,3.5c-2.2,2.3-3.3,5.6-3.3,9.9v19.7c0,0.8-0.3,1.5-0.9,2.1
			c-0.6,0.6-1.3,0.9-2.1,0.9c-0.8,0-1.5-0.3-2.1-0.9c-0.6-0.6-0.9-1.3-0.9-2.2l0-36.1c0-0.9,0.3-1.6,0.9-2.2
			C139.6,29.6,140.3,29.3,141.2,29.3z"/>
		<path class="st0" d="M311,38c0.9-1.4,2-2.8,3.3-4.1c1.3-1.3,2.8-2.4,4.6-3.3c1.8-0.9,3.8-1.3,6.1-1.3c3.4,0,6.1,0.8,8.1,2.4
			c2,1.6,3.5,3.8,4.4,6.7c0.9,2.8,1.3,6,1.3,9.6l0,20.3c0,0.8-0.3,1.5-0.9,2.1c-0.6,0.6-1.3,0.9-2.1,0.9c-0.8,0-1.5-0.3-2.1-0.9
			c-0.6-0.6-0.9-1.3-0.9-2.2l0-20.2c0-2.2-0.2-4.3-0.6-6.2c-0.4-1.9-1.2-3.4-2.3-4.6c-1.1-1.2-2.8-1.8-4.9-1.8
			c-2.8,0-5.1,0.6-6.9,1.8c-1.8,1.2-3.1,2.8-3.9,4.7c-0.8,1.9-1.3,3.9-1.3,6.1l-0.1,20.4c0,0.8-0.3,1.5-0.9,2.1
			c-0.6,0.6-1.3,0.9-2.1,0.9c-0.8,0-1.5-0.3-2.1-0.9c-0.6-0.6-0.9-1.3-0.9-2.2l0-20.4c0-2.3-0.2-4.3-0.6-6.2
			c-0.4-1.9-1.2-3.4-2.4-4.6s-2.9-1.7-5-1.7c-3.8,0-6.8,1.2-8.9,3.5c-2.1,2.3-3.1,5.4-3.1,9l0,20.5c0,0.8-0.3,1.5-0.9,2.1
			c-0.6,0.6-1.3,0.9-2.1,0.9c-0.8,0-1.5-0.3-2.1-0.9c-0.6-0.6-0.9-1.3-0.9-2.2l0-36.2c0.1-0.8,0.4-1.5,0.9-2.1
			c0.6-0.5,1.3-0.8,2.1-0.8c0.9,0,1.5,0.3,2.1,0.8s0.8,1.3,0.7,2.1l0.2,4.7c0.7-1.2,1.6-2.3,2.8-3.5c1.2-1.2,2.6-2.2,4.2-3
			c1.6-0.8,3.2-1.2,4.9-1.2c3.2,0,5.9,0.9,8,2.6C308.4,33.7,310,35.7,311,38z"/>
		<path class="st0" d="M354.3,23.3c-1.2,0-2.2-0.4-3-1.2c-0.9-0.8-1.3-1.8-1.3-3c0-1.2,0.4-2.2,1.3-3c0.9-0.8,1.9-1.2,3-1.2
			c1.2,0,2.2,0.4,3.1,1.2c0.9,0.8,1.3,1.8,1.3,3c0,1.2-0.4,2.2-1.3,3C356.5,22.8,355.5,23.3,354.3,23.3z M351.4,32
			c0-0.7,0.3-1.3,1-1.8c0.6-0.5,1.2-0.8,1.8-0.8c0.9,0,1.7,0.3,2.3,0.8c0.6,0.6,0.9,1.3,0.9,2.2l0.1,36.1c0,0.8-0.3,1.5-0.9,2.1
			c-0.6,0.6-1.3,0.9-2.1,0.9c-0.8,0-1.5-0.3-2.1-0.9c-0.6-0.6-0.9-1.3-0.9-2.2L351.4,32z"/>
		<path class="st0" d="M404.1,29.4c0.9,0,1.6,0.3,2.2,0.9c0.6,0.6,0.9,1.3,0.9,2.2c0,0.8-0.3,1.5-0.8,2.1l-14.6,15.8l14.8,16.1
			c0.6,0.6,0.8,1.3,0.8,2.1c0,0.8-0.3,1.5-0.9,2.1c-0.6,0.6-1.3,0.9-2.1,0.9c-0.9,0-1.7-0.3-2.3-1l-14.5-15.7l-14.5,15.7
			c-0.6,0.7-1.3,1-2.3,1c-0.8,0-1.5-0.3-2.1-0.9c-0.6-0.6-0.9-1.3-0.9-2.1c0-0.8,0.3-1.5,0.8-2.1l14.8-16l-14.6-15.8
			c-0.6-0.6-0.8-1.3-0.8-2.1c0-0.8,0.3-1.5,0.9-2.1c0.6-0.6,1.3-0.9,2.1-0.9c0.9,0,1.7,0.3,2.3,1l14.3,15.5l14.3-15.5
			C402.5,29.8,403.2,29.4,404.1,29.4z"/>
	</g>
</g>
<g id="Layer_2">
	<circle class="st1" cx="225.8" cy="47" r="36.6"/>
</g>
<g id="Layer_3">
	<linearGradient id="SVGID_1_" gradientUnits="userSpaceOnUse" x1="200.9637" y1="12.9313" x2="260.1259" y2="72.0936">
		<stop  offset="0" style="stop-color:#A051D3"/>
		<stop  offset="0.5082" style="stop-color:#437CCE"/>
		<stop  offset="1" style="stop-color:#78C57E"/>
	</linearGradient>
	<path class="st2" d="M225.7,5.5c-22.2,0-40.3,17.3-41.8,39.1h10.5c1.4-16,14.9-28.6,31.3-28.6c17.3,0,31.4,14.1,31.4,31.4
		c0,16.6-13,30.2-29.3,31.3v10.5c22.1-1.1,39.8-19.4,39.8-41.8C267.5,24.3,248.8,5.5,225.7,5.5z"/>
</g>
<g id="Layer_4">
	<circle class="st3" cx="225.3" cy="47.5" r="21.7"/>
</g>
</svg>
