<?xml version="1.0" encoding="utf-8"?>
<!-- Generator: Adobe Illustrator 16.0.0, SVG Export Plug-In . SVG Version: 6.00 Build 0)  -->
<!DOCTYPE svg PUBLIC "-//W3C//DTD SVG 1.1//EN" "http://www.w3.org/Graphics/SVG/1.1/DTD/svg11.dtd">
<svg version="1.1" id="Layer_1" xmlns="http://www.w3.org/2000/svg" xmlns:xlink="http://www.w3.org/1999/xlink" x="0px" y="0px"
	 width="612px" height="439.893px" viewBox="0 176.054 612 439.893" enable-background="new 0 176.054 612 439.893"
	 xml:space="preserve">
<g>
	<path fill="#26A6D1" d="M38.25,176.054h535.5c21.115,0,38.25,17.135,38.25,38.268v363.375c0,21.114-17.135,38.249-38.25,38.249
		H38.25C17.116,615.948,0,598.812,0,577.699V214.322C0,193.188,17.135,176.054,38.25,176.054z"/>
	<path fill="#FFFFFF" d="M98.685,329.054L38.25,462.796h72.35l8.969-21.324h20.501l8.969,21.324h79.637v-16.275l7.096,16.275h41.194
		l7.096-16.619v16.619h165.623l20.139-20.771l18.857,20.771l85.067,0.172l-60.626-66.67l60.626-67.244h-83.748l-19.604,20.386
		l-18.264-20.386H271.958l-15.472,34.52l-15.834-34.52h-72.199v15.721l-8.032-15.721H98.685z M112.685,348.045h35.267l40.087,90.691
		v-90.691h38.633l30.962,65.025l28.536-65.025h38.44v95.969h-23.39l-0.191-75.201l-34.101,75.201h-20.923l-34.292-75.201v75.201
		h-48.119l-9.122-21.515h-49.285l-9.104,21.496H70.303L112.685,348.045z M346.01,348.045h95.108l29.089,31.422l30.027-31.422h29.089
		l-44.198,48.234l44.198,47.678h-30.408l-29.09-31.787l-30.18,31.787H346.01V348.045L346.01,348.045z M129.84,364.282
		l-16.237,38.327h32.456L129.84,364.282z M369.496,367.916v17.519h51.886v19.526h-51.886v19.126h58.197l27.042-28.171
		l-25.895-28.018h-59.345V367.916z"/>
</g>
</svg>
