<?xml version="1.0" encoding="utf-8"?>
<!-- Generator: Adobe Illustrator 16.0.0, SVG Export Plug-In . SVG Version: 6.00 Build 0)  -->
<!DOCTYPE svg PUBLIC "-//W3C//DTD SVG 1.1//EN" "http://www.w3.org/Graphics/SVG/1.1/DTD/svg11.dtd">
<svg version="1.1" id="Layer_1" xmlns="http://www.w3.org/2000/svg" xmlns:xlink="http://www.w3.org/1999/xlink" x="0px" y="0px"
	 width="206.042px" height="210.724px" viewBox="0 0 206.042 210.724" enable-background="new 0 0 206.042 210.724"
	 xml:space="preserve">
<linearGradient id="SVGID_1_" gradientUnits="userSpaceOnUse" x1="99.856" y1="538.9258" x2="103.856" y2="722.9261" gradientTransform="matrix(1 0 0 1 0 -579.1309)">
	<stop  offset="0" style="stop-color:#8BD6F1"/>
	<stop  offset="0.9557" style="stop-color:#58C6ED"/>
</linearGradient>
<path fill="#6dd0f1" d="M206.042,165.558c0,24.941-20.223,45.166-45.166,45.166H45.166C20.222,210.724,0,190.499,0,165.558
	V45.166C0,20.224,20.222,0,45.166,0h115.709c24.943,0,45.166,20.224,45.166,45.166V165.558L206.042,165.558z"/>
<g>
	<g>
		<path fill="#FFFFFF" d="M165.907,162.3c0,3.744-3.037,6.781-6.783,6.781H48.917c-3.747,0-6.783-3.037-6.783-6.781V59.281
			c0-3.748,3.037-6.785,6.783-6.785h110.207c3.747,0,6.783,3.037,6.783,6.785V162.3z"/>
	</g>
</g>
<path fill="none" stroke="#FFFFFF" stroke-width="5" stroke-miterlimit="10" d="M71.934,62.247c0-17.72,14.366-32.086,32.086-32.086
	c17.721,0,32.086,14.366,32.086,32.086"/>
<g>
	
		<linearGradient id="SVGID_2_" gradientUnits="userSpaceOnUse" x1="92.062" y1="676.0518" x2="117.4526" y2="676.0518" gradientTransform="matrix(1 0 0 1 0 -579.1309)">
		<stop  offset="0" style="stop-color:#8BD6F1"/>
		<stop  offset="0.9557" style="stop-color:#58C6ED"/>
	</linearGradient>
	<path fill="#6dd0f1" d="M104.756,112.405c3.789,0,12.696-4.559,12.696-15.484c0-8.552-1.153-15.485-12.696-15.485
		c-11.542,0-12.694,6.934-12.694,15.485C92.06,107.846,100.968,112.405,104.756,112.405z M93.957,94.336
		c0.892-1.726,2.822-3.718,6.97-3.631c0,0,2.473,5.999,14.613,3.307c0.049,0.957,0.064,1.935,0.064,2.908
		c0,5.339-2.358,8.648-4.336,10.484c-2.493,2.313-5.26,3.152-6.512,3.152s-4.021-0.839-6.514-3.152
		c-1.979-1.836-4.336-5.146-4.336-10.484C93.908,96.057,93.921,95.189,93.957,94.336z"/>
	
		<linearGradient id="SVGID_3_" gradientUnits="userSpaceOnUse" x1="81.1714" y1="702.79" x2="128.3379" y2="702.79" gradientTransform="matrix(1 0 0 1 0 -579.1309)">
		<stop  offset="0" style="stop-color:#8BD6F1"/>
		<stop  offset="0.9557" style="stop-color:#58C6ED"/>
	</linearGradient>
	<path fill="#6dd0f1" d="M128.327,128.286c-0.646-4.031-1.982-9.223-4.658-11.065c-1.828-1.263-8.205-4.668-10.928-6.123
		l-0.047-0.025c-0.311-0.167-0.691-0.133-0.969,0.084c-1.426,1.121-2.988,1.878-4.645,2.245c-0.294,0.063-0.531,0.271-0.64,0.555
		l-1.687,4.44l-1.687-4.44c-0.105-0.281-0.346-0.488-0.639-0.555c-1.655-0.367-3.218-1.124-4.644-2.245
		c-0.278-0.217-0.658-0.251-0.969-0.084c-2.691,1.438-9.146,4.915-10.966,6.144c-3.082,2.074-4.429,9.587-4.667,11.072
		c-0.024,0.146-0.01,0.297,0.04,0.438c0.11,0.313,2.938,7.625,23.532,7.625c20.592,0,23.42-7.314,23.528-7.625
		C128.336,128.583,128.351,128.433,128.327,128.286z M118.838,125.827l-4.031,1.256l-4.03-1.256v-2.168h8.063v2.168H118.838z"/>
</g>
</svg>
