<?xml version="1.0" encoding="utf-8"?>
<!-- Generator: Adobe Illustrator 16.0.0, SVG Export Plug-In . SVG Version: 6.00 Build 0)  -->
<!DOCTYPE svg PUBLIC "-//W3C//DTD SVG 1.1//EN" "http://www.w3.org/Graphics/SVG/1.1/DTD/svg11.dtd">
<svg version="1.1" id="Layer_1" xmlns="http://www.w3.org/2000/svg" xmlns:xlink="http://www.w3.org/1999/xlink" x="0px" y="0px"
	 width="612px" height="453.041px" viewBox="0 169.48 612 453.041" enable-background="new 0 169.48 612 453.041"
	 xml:space="preserve">
<path fill="#DEDEE0" d="M584.182,169.48H306H27.818C12.455,169.48,0,181.935,0,197.298v397.403
	c0,15.363,12.455,27.819,27.818,27.819H306h278.182c15.363,0,27.818-12.456,27.818-27.819V197.298
	C612,181.935,599.545,169.48,584.182,169.48z"/>
<g>
	<path fill="#3D6DEB" d="M209.638,395.792c0.05,28.636,17.889,53.046,43.144,62.747V332.994
		C227.526,342.758,209.688,367.168,209.638,395.792z"/>
	<path fill="#3D6DEB" d="M420.504,307.169c-23.804-21.915-56.345-34.484-89.386-34.484H306h-29.494
		c-70.808,0-124.203,53.44-124.203,124.307c0,67.45,55.504,122.325,123.728,122.325H306h25.081l0.608,0.003c0.003,0,0.004,0,0.006,0
		c32.288,0,64.744-13.058,89.043-35.822c25.123-23.538,38.96-54.259,38.96-86.504C459.697,362.337,445.777,330.438,420.504,307.169z
		 M306,490.068c-9.213,2.855-18.996,4.399-29.135,4.399c-54.404,0-98.667-44.266-98.667-98.675s44.263-98.674,98.667-98.674
		c10.139,0,19.921,1.543,29.135,4.398c40.203,12.462,69.489,50.012,69.489,94.275C375.489,440.057,346.203,477.605,306,490.068z"/>
	<path fill="#3D6DEB" d="M306,335.211c-1.662-0.803-3.352-1.554-5.083-2.219v125.544c1.734-0.666,3.423-1.415,5.083-2.216
		c22.525-10.869,38.054-33.858,38.103-60.528C344.054,369.133,328.525,346.098,306,335.211z"/>
</g>
<path fill="#DEDEE0" d="M306,301.514c-9.213-2.855-18.996-4.399-29.135-4.399c-54.404,0-98.667,44.266-98.667,98.674
	c0,54.409,44.263,98.674,98.667,98.674c10.139,0,19.921-1.543,29.135-4.398c40.203-12.463,69.489-50.01,69.489-94.276
	S346.203,313.978,306,301.514z M252.782,458.537c-25.253-9.698-43.092-34.11-43.144-62.744c0.05-28.625,17.89-53.035,43.144-62.8
	V458.537z M306,456.321c-1.662,0.801-3.352,1.551-5.083,2.216V332.992c1.734,0.666,3.423,1.418,5.083,2.219
	c22.525,10.886,38.054,33.922,38.103,60.581C344.054,422.463,328.525,445.451,306,456.321z"/>
<path fill="#C3C3C7" d="M276.031,519.315c-68.224,0-123.728-54.875-123.728-122.326c0-70.865,53.395-124.306,124.203-124.306H306
	V169.48H27.818C12.455,169.48,0,181.935,0,197.298v397.403c0,15.363,12.455,27.819,27.818,27.819H306V519.314L276.031,519.315z"/>
</svg>
