<?xml version="1.0" encoding="utf-8"?>
<!-- Generator: Adobe Illustrator 16.0.0, SVG Export Plug-In . SVG Version: 6.00 Build 0)  -->
<!DOCTYPE svg PUBLIC "-//W3C//DTD SVG 1.1//EN" "http://www.w3.org/Graphics/SVG/1.1/DTD/svg11.dtd">
<svg version="1.1" id="Capa_1" xmlns="http://www.w3.org/2000/svg" xmlns:xlink="http://www.w3.org/1999/xlink" x="0px" y="0px"
	 width="612px" height="422.063px" viewBox="0 184.969 612 422.063" enable-background="new 0 184.969 612 422.063"
	 xml:space="preserve">
<path fill="#34495E" d="M612,570.853c0,19.981-16.196,36.179-36.176,36.179H36.176c-19.98,0-36.176-16.2-36.176-36.179V221.146
	c0-19.981,16.196-36.177,36.176-36.177h539.646c19.981,0,36.177,16.198,36.177,36.177L612,570.853L612,570.853z"/>
<path fill="#F26E21" d="M369.816,395.762c0.049-11.518-4.27-23.053-12.961-31.745c-8.71-8.71-20.273-13.025-31.815-12.956
	c-0.055,0-0.108-0.003-0.166-0.003c-25.063,0-44.944,19.875-44.944,44.946c0,24.822,20.125,44.942,44.944,44.942
	c25.07,0,44.948-19.88,44.948-44.942C369.822,395.921,369.816,395.843,369.816,395.762z"/>
<g>
	<path fill="#E7E8E3" d="M271.573,415.017c-6.718,6.725-12.918,9.352-19.596,9.494c-16.27-0.146-28.231-12.194-28.231-29.373
		c0-8.647,3.274-15.734,8.46-21.788l0,0c4.864-4.618,11.13-7.601,18.335-7.601c7.778,0,13.831,2.593,20.741,9.507v-19.879
		c-6.909-3.456-12.964-5.186-20.741-5.186c-10.987,0.786-21.347,5.225-29.293,12.196l0,0c-2.29,2.061-4.485,4.335-6.346,6.939
		c-5.805,7.523-9.313,16.735-9.313,26.679c0,25.063,19.887,44.077,44.951,44.077c0.122,0,0.243-0.011,0.361-0.012
		c0.168,0.002,0.334,0.012,0.502,0.012c6.914,0,12.969-1.725,20.747-5.183L271.573,415.017c-0.292,0.291,0.289,0.563,0,0.839
		V415.017z"/>
	<polygon fill="#E7E8E3" points="426.563,362.571 426.563,362.571 406.988,410.696 384.514,353.646 366.365,353.646 
		401.802,440.945 411.31,440.945 448.477,353.646 430.328,353.646 	"/>
	<polygon fill="#E7E8E3" points="455.394,391.678 455.394,438.355 502.07,438.355 502.932,438.355 502.932,424.521 488.238,424.521 
		472.681,424.521 472.681,408.967 472.681,401.19 502.07,401.19 502.07,386.491 472.681,386.491 472.681,368.342 502.932,368.342 
		502.932,353.646 455.394,353.646 	"/>
	<path fill="#E7E8E3" d="M64.708,353.646H40.502v84.71h24.205c12.963,0,22.47-3.46,30.249-9.511
		c9.506-7.779,15.56-19.877,15.56-32.84C110.516,370.932,92.362,353.646,64.708,353.646z M84.586,417.611
		c-5.187,4.319-12.102,6.91-22.475,6.91h-5.186V368.34h4.321c10.373,0,17.288,1.729,22.476,6.913
		c6.049,5.183,9.509,12.967,9.509,20.748C94.095,403.78,90.638,412.42,84.586,417.611z"/>
	<rect x="118.3" y="353.638" fill="#E7E8E3" width="16.422" height="84.708"/>
	<path fill="#E7E8E3" d="M176.207,386.491c-10.371-3.457-12.967-6.052-12.967-10.372c0-5.187,5.187-9.507,12.102-9.507
		c5.186,0,9.507,1.729,13.83,6.916l8.646-11.236c-6.917-6.053-15.557-9.506-25.065-9.506c-14.698,0-26.799,10.373-26.799,24.198
		c0,12.104,5.191,17.289,20.747,23.339c6.915,2.589,9.509,3.457,11.241,5.186c3.451,1.726,5.183,5.187,5.183,8.64
		c0,6.916-5.183,12.104-12.967,12.104c-7.786,0-14.695-4.32-18.153-11.237l-10.373,10.373c7.783,11.236,17.29,16.422,29.391,16.422
		c17.286,0,29.381-11.236,29.381-27.661C200.405,399.458,195.223,393.407,176.207,386.491z"/>
	<path fill="#E7E8E3" d="M549.609,402.912c12.961-2.589,19.878-11.235,19.878-24.198c0-15.556-11.238-25.069-30.251-25.069h-25.068
		v84.71h16.423v-33.713h2.597l23.331,33.713h19.883L549.609,402.912z M535.775,392.54h-5.184v-25.927h5.184
		c10.372,0,16.426,4.32,16.426,12.969C552.201,388.221,546.149,392.54,535.775,392.54z"/>
</g>
</svg>
