<?xml version="1.0" encoding="utf-8"?>
<!-- Generator: Adobe Illustrator 16.0.0, SVG Export Plug-In . SVG Version: 6.00 Build 0)  -->
<!DOCTYPE svg PUBLIC "-//W3C//DTD SVG 1.1//EN" "http://www.w3.org/Graphics/SVG/1.1/DTD/svg11.dtd">
<svg version="1.1" id="Layer_1" xmlns="http://www.w3.org/2000/svg" xmlns:xlink="http://www.w3.org/1999/xlink" x="0px" y="0px"
	 width="206.041px" height="211.869px" viewBox="0 0 206.041 211.869" enable-background="new 0 0 206.041 211.869"
	 xml:space="preserve">
<linearGradient id="SVGID_1_" gradientUnits="userSpaceOnUse" x1="100.1206" y1="251.9277" x2="104.1206" y2="67.9282" gradientTransform="matrix(1 0 0 -1 0 212.8691)">
	<stop  offset="0" style="stop-color:#87D0C9"/>
	<stop  offset="0.9557" style="stop-color:#48BFB2"/>
</linearGradient>
<path fill="#55ddc8" d="M206.306,166.703c0,24.942-20.223,45.166-45.166,45.166H45.43c-24.944,0-45.166-20.224-45.166-45.166
	V46.312c0-24.942,20.222-45.166,45.166-45.166H161.14c24.943,0,45.166,20.224,45.166,45.166V166.703L206.306,166.703z"/>
<g>
	<g>
		<path fill="#FFFFFF" d="M166.171,163.446c0,3.744-3.037,6.781-6.783,6.781H49.181c-3.747,0-6.783-3.037-6.783-6.781V60.427
			c0-3.748,3.037-6.785,6.783-6.785h110.207c3.747,0,6.783,3.037,6.783,6.785V163.446z"/>
	</g>
</g>
<path fill="none" stroke="#FFFFFF" stroke-width="5" stroke-miterlimit="10" d="M72.198,63.393c0-17.72,14.366-32.086,32.086-32.086
	c17.721,0,32.086,14.366,32.086,32.086"/>
<g>
	<g>
		
			<linearGradient id="SVGID_2_" gradientUnits="userSpaceOnUse" x1="93.9087" y1="110.292" x2="117.043" y2="110.292" gradientTransform="matrix(1 0 0 -1 0 212.8691)">
			<stop  offset="0" style="stop-color:#87D0C9"/>
			<stop  offset="0.9557" style="stop-color:#48BFB2"/>
		</linearGradient>
		<path fill="#55ddc8" d="M96.243,109.188c0.473,3.074,2.848,6.984,6.749,8.359c1.601,0.559,3.353,0.57,4.954-0.011
			c3.836-1.386,6.285-5.286,6.77-8.351c0.516-0.043,1.193-0.763,1.924-3.353c1-3.535-0.064-4.063-0.967-3.976
			c0.172-0.483,0.301-0.979,0.387-1.45c1.526-9.166-2.986-9.478-2.986-9.478s-0.752-1.439-2.719-2.525
			c-1.321-0.784-3.158-1.387-5.576-1.182c-0.784,0.031-1.525,0.193-2.224,0.419l0,0c-0.892,0.301-1.709,0.742-2.45,1.257
			c-0.902,0.569-1.762,1.279-2.515,2.085c-1.192,1.225-2.256,2.804-2.719,4.771c-0.386,1.472-0.3,3.009,0.022,4.663l0,0
			c0.086,0.484,0.214,0.968,0.387,1.452c-0.902-0.086-1.967,0.44-0.967,3.975C95.051,108.426,95.728,109.146,96.243,109.188z"/>
		
			<linearGradient id="SVGID_3_" gradientUnits="userSpaceOnUse" x1="83.5918" y1="84.9883" x2="127.374" y2="84.9883" gradientTransform="matrix(1 0 0 -1 0 212.8691)">
			<stop  offset="0" style="stop-color:#87D0C9"/>
			<stop  offset="0.9557" style="stop-color:#48BFB2"/>
		</linearGradient>
		<path fill="#55ddc8" d="M123.204,121.214c-5.491-1.396-9.95-4.535-9.95-4.535l-3.481,11.014l-0.655,2.074l-0.011-0.031
			l-0.569,1.763l-1.838-5.212c4.513-6.298-0.913-6.23-1.214-6.223c-0.301-0.01-5.729-0.075-1.215,6.223l-1.836,5.212l-0.569-1.763
			l-0.011,0.031l-0.656-2.074l-3.492-11.014c0,0-4.459,3.139-9.951,4.535c-4.094,1.041-4.287,5.77-4.126,8.102
			c0,0,0.237,3.17,0.473,4.566c0,0,7.995,5.191,21.383,5.201c13.389,0,21.383-5.201,21.383-5.201
			c0.236-1.396,0.473-4.566,0.473-4.566C127.491,126.983,127.298,122.255,123.204,121.214z"/>
	</g>
</g>
</svg>
