<?xml version="1.0" encoding="utf-8"?>
<!-- Generator: Adobe Illustrator 16.0.0, SVG Export Plug-In . SVG Version: 6.00 Build 0)  -->
<!DOCTYPE svg PUBLIC "-//W3C//DTD SVG 1.1//EN" "http://www.w3.org/Graphics/SVG/1.1/DTD/svg11.dtd">
<svg version="1.1" id="Capa_1" xmlns="http://www.w3.org/2000/svg" xmlns:xlink="http://www.w3.org/1999/xlink" x="0px" y="0px"
	 width="498.252px" height="611.999px" viewBox="56.874 90 498.252 611.999" enable-background="new 56.874 90 498.252 611.999"
	 xml:space="preserve">
<g>
	<g>
		<path fill="#4CAF50" d="M400.424,90H154.62c-35.91,0-65.136,29.247-65.136,65.136v164.862h-6.362
			c-14.493,0-26.248,11.743-26.248,26.249v235.181c0,14.505,11.753,26.246,26.248,26.246h6.362v29.188
			c0,35.929,29.227,65.137,65.136,65.137h335.389c35.887,0,65.117-29.209,65.117-65.137V244.16L400.424,90z M490.009,662.108H154.62
			c-13.904,0-25.227-11.322-25.227-25.246v-29.188h312.651c14.496,0,26.249-11.741,26.249-26.246V346.247
			c0-14.506-11.753-26.249-26.249-26.249H129.393V155.136c0-13.884,11.324-25.207,25.227-25.207l230.88-0.241v85.342
			c0,24.927,20.226,45.172,45.172,45.172l83.602-0.24l0.94,376.899C515.214,650.786,503.912,662.108,490.009,662.108z"/>
	</g>
</g>
<g>
	<path fill="#FFFFFF" d="M243.369,457.896l-65.475-95.477h47.297l44.474,68.299l44.826-68.299h46.944l-65.651,95.477l69.004,99.713
		h-46.944l-48.179-73.063l-48.003,73.063h-46.944L243.369,457.896z"/>
</g>
</svg>
