<?xml version="1.0" encoding="utf-8"?>
<!-- Generator: Adobe Illustrator 16.0.0, SVG Export Plug-In . SVG Version: 6.00 Build 0)  -->
<!DOCTYPE svg PUBLIC "-//W3C//DTD SVG 1.1//EN" "http://www.w3.org/Graphics/SVG/1.1/DTD/svg11.dtd">
<svg version="1.1" id="Capa_1" xmlns="http://www.w3.org/2000/svg" xmlns:xlink="http://www.w3.org/1999/xlink" x="0px" y="0px"
	 width="498.252px" height="612px" viewBox="0 0 498.252 612" enable-background="new 0 0 498.252 612" xml:space="preserve">
<g>
	<path fill="#FF2116" d="M123.403,393.742c0-10.164-7.052-16.225-19.496-16.225c-5.082,0-8.522,0.5-10.322,0.98v32.609
		c2.131,0.479,4.751,0.639,8.362,0.639C115.21,411.748,123.403,405.046,123.403,393.742z"/>
	<path fill="#FF2116" d="M200.434,377.859c-5.572,0-9.174,0.48-11.304,0.979v72.221c2.131,0.5,5.572,0.5,8.685,0.5
		c22.604,0.16,37.349-12.283,37.349-38.648C235.322,389.98,221.887,377.859,200.434,377.859z"/>
	<path fill="#FF2116" d="M343.55,0H97.746C61.836,0,32.61,29.247,32.61,65.136v240.862h-6.362C11.755,305.998,0,317.742,0,332.248
		v159.18c0,14.506,11.753,26.246,26.248,26.246h6.362v29.189C32.61,582.791,61.837,612,97.746,612h335.389
		c35.888,0,65.117-29.209,65.117-65.137V154.16L343.55,0z M68.858,360.974c7.692-1.301,18.504-2.279,33.738-2.279
		c15.395,0,26.367,2.938,33.739,8.842c7.042,5.563,11.794,14.742,11.794,25.547c0,10.803-3.601,19.986-10.153,26.207
		c-8.522,8.021-21.125,11.623-35.869,11.623c-3.281,0-6.222-0.162-8.522-0.48v39.473H68.858V360.974z M433.135,572.109H97.746
		c-13.904,0-25.227-11.322-25.227-25.246v-29.189H385.17c14.496,0,26.249-11.74,26.249-26.246v-159.18
		c0-14.506-11.753-26.25-26.249-26.25H72.519V65.136c0-13.884,11.324-25.207,25.227-25.207l230.88-0.241v85.342
		c0,24.927,20.226,45.172,45.172,45.172l83.603-0.24l0.939,376.899C458.34,560.787,447.038,572.109,433.135,572.109z
		 M164.074,469.404V360.972c9.171-1.459,21.125-2.277,33.738-2.277c20.965,0,34.56,3.76,45.211,11.781
		c11.464,8.521,18.665,22.105,18.665,41.609c0,21.125-7.692,35.711-18.347,44.711c-11.623,9.662-29.316,14.244-50.932,14.244
		C179.466,471.042,170.295,470.222,164.074,469.404z M342.831,405.207v20.305h-39.643v44.393h-25.057V359.513h67.479v20.465h-42.423
		v25.23h39.643V405.207z"/>
</g>
</svg>
