<?xml version="1.0" encoding="utf-8"?>
<!-- Generator: Adobe Illustrator 16.0.0, SVG Export Plug-In . SVG Version: 6.00 Build 0)  -->
<!DOCTYPE svg PUBLIC "-//W3C//DTD SVG 1.1//EN" "http://www.w3.org/Graphics/SVG/1.1/DTD/svg11.dtd">
<svg version="1.1" id="Layer_1" xmlns="http://www.w3.org/2000/svg" xmlns:xlink="http://www.w3.org/1999/xlink" x="0px" y="0px"
	 width="206.042px" height="210.723px" viewBox="0 0 206.042 210.723" enable-background="new 0 0 206.042 210.723"
	 xml:space="preserve">
<linearGradient id="SVGID_1_" gradientUnits="userSpaceOnUse" x1="99.8569" y1="-327.2202" x2="103.8569" y2="-511.219" gradientTransform="matrix(1 0 0 -1 0 -367.4229)">
	<stop  offset="0" style="stop-color:#B4D889"/>
	<stop  offset="0.9557" style="stop-color:#94CB6C"/>
</linearGradient>
<path fill="#a0d176" d="M206.042,165.557c0,24.942-20.223,45.166-45.166,45.166H45.166C20.222,210.723,0,190.5,0,165.557
	V45.166C0,20.224,20.222,0,45.166,0h115.709c24.943,0,45.166,20.224,45.166,45.166V165.557L206.042,165.557z"/>
<g>
	<g>
		<path fill="#FFFFFF" d="M165.907,162.3c0,3.744-3.037,6.781-6.783,6.781H48.917c-3.747,0-6.783-3.037-6.783-6.781V59.281
			c0-3.748,3.037-6.785,6.783-6.785h110.207c3.747,0,6.783,3.037,6.783,6.785V162.3z"/>
	</g>
</g>
<path fill="none" stroke="#FFFFFF" stroke-width="5" stroke-miterlimit="10" d="M71.934,62.247c0-17.72,14.366-32.086,32.086-32.086
	c17.721,0,32.086,14.366,32.086,32.086"/>
<g>
	<g>
		<g>
			
				<linearGradient id="SVGID_2_" gradientUnits="userSpaceOnUse" x1="83.7358" y1="-477.2109" x2="123.7769" y2="-477.2109" gradientTransform="matrix(1 0 0 -1 0 -367.4229)">
				<stop  offset="0" style="stop-color:#B4D889"/>
				<stop  offset="0.9557" style="stop-color:#94CB6C"/>
			</linearGradient>
			<path fill="url(#SVGID_2_)" d="M121.297,84.067H99.953v14.482c0,0.958-0.777,1.735-1.734,1.735H83.736v32.745
				c0,1.369,1.111,2.48,2.48,2.48h35.082c1.369,0,2.479-1.111,2.479-2.48V86.547C123.777,85.178,122.667,84.067,121.297,84.067z
				 M111.526,125.238H97.395c-0.959,0-1.736-0.777-1.736-1.734c0-0.959,0.777-1.734,1.736-1.734h14.131
				c0.958,0,1.734,0.775,1.734,1.734C113.26,124.46,112.485,125.238,111.526,125.238z M111.526,117.073H97.395
				c-0.959,0-1.736-0.776-1.736-1.735s0.777-1.733,1.736-1.733h14.131c0.958,0,1.734,0.774,1.734,1.733
				C113.26,116.294,112.485,117.073,111.526,117.073z M111.526,108.908H97.395c-0.959,0-1.736-0.775-1.736-1.734
				s0.777-1.733,1.736-1.733h14.131c0.958,0,1.734,0.774,1.734,1.733C113.26,108.13,112.485,108.908,111.526,108.908z"/>
		</g>
	</g>
	<g>
		<g>
			
				<linearGradient id="SVGID_3_" gradientUnits="userSpaceOnUse" x1="83.7358" y1="-457.8628" x2="96.4829" y2="-457.8628" gradientTransform="matrix(1 0 0 -1 0 -367.4229)">
				<stop  offset="0" style="stop-color:#B4D889"/>
				<stop  offset="0.9557" style="stop-color:#94CB6C"/>
			</linearGradient>
			<path fill="url(#SVGID_3_)" d="M96.461,84.067c-0.657,0-1.288,0.262-1.753,0.728L84.463,95.04
				c-0.465,0.463-0.727,1.095-0.727,1.752v0.021h12.747V84.067H96.461z"/>
		</g>
	</g>
</g>
</svg>
