<?xml version="1.0" encoding="utf-8"?>
<!-- Generator: Adobe Illustrator 16.0.0, SVG Export Plug-In . SVG Version: 6.00 Build 0)  -->
<!DOCTYPE svg PUBLIC "-//W3C//DTD SVG 1.1//EN" "http://www.w3.org/Graphics/SVG/1.1/DTD/svg11.dtd">
<svg version="1.1" id="Capa_1" xmlns="http://www.w3.org/2000/svg" xmlns:xlink="http://www.w3.org/1999/xlink" x="0px" y="0px"
	 width="612px" height="422.063px" viewBox="0 184.969 612 422.063" enable-background="new 0 184.969 612 422.063"
	 xml:space="preserve">
<path fill="#E7E8E3" d="M612,570.853c0,19.981-16.196,36.179-36.176,36.179H36.176c-19.98,0-36.176-16.2-36.176-36.179V221.146
	c0-19.981,16.196-36.177,36.176-36.177h539.646c19.981,0,36.177,16.198,36.177,36.177L612,570.853L612,570.853z"/>
<path fill="#0F549D" d="M234.517,261.372h-64.133c-31.158,0-52.092,20.935-52.092,52.092v93.179c0,0.046,0.005,0.093,0.013,0.138
	c2.459,11.684,14.705,20.491,28.484,20.491c15.213,0,26.682-10.688,26.682-24.864v-46.533h39.207V401.8
	c0,26.189-33.714,38.551-56.492,38.658c-13.474-0.056-26.677-4.194-36.227-11.357c-0.199-0.149-0.471-0.175-0.695-0.063
	c0,0-0.002,0.002-0.005,0.003c-0.188-0.095-0.411-0.097-0.6-0.003c-0.224,0.114-0.366,0.344-0.366,0.596v102.855
	c0,0.367,0.296,0.666,0.666,0.666h65.95c23.251,0,50.276-21.962,50.276-50.276V262.038
	C235.183,261.668,234.887,261.372,234.517,261.372z"/>
<path fill="#B41F36" d="M363.395,261.372h-63.529c-31.645,0-52.092,20.21-52.092,51.49v52.637c0,0.258,0.148,0.493,0.381,0.603
	c0.234,0.109,0.509,0.073,0.709-0.092c5.545-4.624,14.484-10.134,25.589-10.134h68.31v12.426
	c-16.586-3.631-31.928-5.286-39.269-5.286c-17.384,0-31.525,14.142-31.525,31.522l0.005,0.193l-0.005,0.412
	c0,17.382,14.142,31.523,31.525,31.523c8.905,0,24.408-1.449,39.269-4.681v11.216h-68.31c-9.825,0-19.136-3.681-25.546-10.095
	c-0.192-0.191-0.478-0.248-0.726-0.144c-0.25,0.103-0.411,0.346-0.411,0.614v108.907c0,0.367,0.296,0.666,0.666,0.666h65.339
	c23.255,0,50.281-21.962,50.281-50.276V262.038C364.059,261.668,363.763,261.372,363.395,261.372z"/>
<g>
	<path fill="#329947" d="M398.427,425.398c0,0.367,0.299,0.666,0.665,0.666h28.436c7.635,0,14.585-6.952,14.585-14.583
		c0-7.63-6.951-14.58-14.585-14.58h-28.436c-0.365,0-0.665,0.298-0.665,0.666V425.398z"/>
	<path fill="#329947" d="M494.085,261.372h-62.929c-16.75,0-30.36,5.665-39.466,15.635v-0.001c0,0-13.23,12.907-13.23,34.193
		c0,0.786,0,1.533,0,2.264v19.022v22.725c0,0.367,0.296,0.666,0.666,0.666h76.238c10.461,0,19.302,8.84,19.302,19.303
		c0,10.463-8.841,19.302-19.302,19.302c-0.368,0-0.666,0.297-0.666,0.666s0.296,0.666,0.666,0.666
		c11.838,0,21.115,8.213,21.115,18.697c0,10.659-9.079,18.698-21.115,18.698h-76.238c-0.368,0-0.666,0.297-0.666,0.665v98.618
		c0,0.367,0.296,0.666,0.666,0.666h65.347c23.252,0,50.278-21.961,50.278-50.276V262.038
		C494.751,261.668,494.45,261.372,494.085,261.372z"/>
	<path fill="#329947" d="M399.092,391.576h28.436c7.577,0,13.979-6.401,13.979-13.978c0-7.631-6.949-14.582-14.578-14.582h-27.836
		c-0.365,0-0.665,0.297-0.665,0.666v27.229C398.427,391.278,398.726,391.576,399.092,391.576z"/>
</g>
</svg>
