<?xml version="1.0" encoding="utf-8"?>
<!-- Generator: Adobe Illustrator 16.0.0, SVG Export Plug-In . SVG Version: 6.00 Build 0)  -->
<!DOCTYPE svg PUBLIC "-//W3C//DTD SVG 1.1//EN" "http://www.w3.org/Graphics/SVG/1.1/DTD/svg11.dtd">
<svg version="1.1" id="Capa_1" xmlns="http://www.w3.org/2000/svg" xmlns:xlink="http://www.w3.org/1999/xlink" x="0px" y="0px"
	 width="612px" height="424.828px" viewBox="0 183.238 612 424.828" enable-background="new 0 183.238 612 424.828"
	 xml:space="preserve">
<path fill="#003663" d="M579.523,185.155c-1.217-0.123-2.45-0.187-3.699-0.187H36.176C16.196,184.969,0,201.165,0,221.146v37.547
	v274.613v37.545v0.002c0,19.98,16.196,36.178,36.176,36.178h539.648c19.98,0,36.176-16.197,36.176-36.178v-0.002v-37.545V258.693
	v-37.547C612,202.414,597.766,187.008,579.523,185.155z"/>
<path fill="#FFB600" d="M530.458,396c0,73.649-59.485,133.842-133.843,133.842c-73.649,0-133.843-60.193-133.843-133.842l0,0
	c0-73.648,59.486-133.843,133.135-133.843C470.973,262.157,530.458,322.351,530.458,396L530.458,396z"/>
<path fill="#F7981D" d="M396.615,262.157c73.649,0,133.843,60.194,133.843,133.843l0,0c0,73.649-59.485,133.842-133.843,133.842
	c-73.649,0-133.843-60.193-133.843-133.842"/>
<path fill="#FF8500" d="M396.615,262.157c73.649,0,133.843,60.194,133.843,133.843l0,0c0,73.649-59.485,133.842-133.843,133.842"/>
<path fill="#FF5050" d="M216.742,262.157C143.801,262.865,84.315,322.351,84.315,396c0,73.649,59.486,133.842,133.843,133.842
	c34.7,0,65.86-13.454,89.937-34.699l0,0l0,0c4.958-4.249,9.206-9.207,13.456-14.164h-27.619c-3.541-4.249-7.082-9.205-9.914-13.455
	h47.446c2.833-4.248,5.665-9.207,7.79-14.162h-63.026c-2.125-4.249-4.249-9.206-5.666-14.165h73.648
	c4.249-13.454,7.082-27.617,7.082-42.489c0-9.914-1.416-19.12-2.833-28.326h-82.146c0.708-4.958,2.124-9.207,3.54-14.164h73.649
	c-1.417-4.957-3.541-9.914-5.665-14.163h-62.319c2.125-4.957,4.958-9.206,7.79-14.163h47.447
	c-2.832-4.958-6.373-9.915-10.622-14.164h-26.202c4.249-4.957,8.498-9.206,13.455-13.455c-23.369-21.953-55.237-34.7-89.937-34.7
	C217.45,262.157,217.45,262.157,216.742,262.157z"/>
<path fill="#E52836" d="M84.315,396c0,73.649,59.486,133.842,133.843,133.842c34.7,0,65.86-13.454,89.937-34.699l0,0l0,0
	c4.958-4.249,9.206-9.207,13.456-14.164h-27.619c-3.541-4.249-7.082-9.205-9.914-13.455h47.446c2.833-4.248,5.665-9.207,7.79-14.162
	h-63.026c-2.125-4.249-4.249-9.206-5.666-14.165h73.648c4.249-13.454,7.082-27.617,7.082-42.489c0-9.914-1.416-19.12-2.833-28.326
	h-82.146c0.708-4.958,2.124-9.207,3.54-14.164h73.649c-1.417-4.957-3.541-9.914-5.665-14.163h-62.319
	c2.125-4.957,4.958-9.206,7.79-14.163h47.447c-2.832-4.958-6.373-9.915-10.622-14.164h-26.202
	c4.249-4.957,8.498-9.206,13.455-13.455c-23.369-21.953-55.237-34.7-89.937-34.7h-0.708"/>
<path fill="#CB2026" d="M218.158,529.842c34.7,0,65.86-13.454,89.937-34.699l0,0l0,0c4.958-4.249,9.206-9.207,13.456-14.164h-27.619
	c-3.541-4.249-7.082-9.205-9.914-13.455h47.446c2.833-4.248,5.665-9.207,7.79-14.162h-63.026c-2.125-4.249-4.249-9.206-5.666-14.165
	h73.648c4.249-13.454,7.082-27.617,7.082-42.489c0-9.914-1.416-19.12-2.833-28.326h-82.146c0.708-4.958,2.124-9.207,3.54-14.164
	h73.649c-1.417-4.957-3.541-9.914-5.665-14.163h-62.319c2.125-4.957,4.958-9.206,7.79-14.163h47.447
	c-2.832-4.958-6.373-9.915-10.622-14.164h-26.202c4.249-4.957,8.498-9.206,13.455-13.455c-23.369-21.953-55.237-34.7-89.937-34.7
	h-0.708"/>
<g>
	<path fill="#FFFFFF" d="M265.605,429.992l2.125-12.04c-0.708,0-2.125,0.709-3.541,0.709c-4.957,0-5.665-2.834-4.957-4.25
		l4.249-24.785h7.79l2.124-13.456h-7.081l1.416-8.498h-14.163c0,0-8.499,46.738-8.499,52.403c0,8.499,4.958,12.04,11.33,12.04
		C260.648,432.116,264.188,430.699,265.605,429.992z"/>
	<path fill="#FFFFFF" d="M270.563,407.33c0,19.829,13.456,24.786,24.786,24.786c10.622,0,14.871-2.124,14.871-2.124l2.834-13.456
		c0,0-7.79,3.54-14.872,3.54c-15.58,0-12.747-11.33-12.747-11.33h29.034c0,0,2.125-9.206,2.125-12.747
		c0-9.206-4.957-20.537-20.537-20.537C281.185,374.046,270.563,389.626,270.563,407.33z M295.348,386.793
		c7.79,0,6.374,9.206,6.374,9.914h-15.58C286.142,396,287.558,386.793,295.348,386.793z"/>
	<path fill="#FFFFFF" d="M385.285,429.992l2.832-15.581c0,0-7.081,3.541-12.039,3.541c-9.913,0-14.163-7.789-14.163-16.287
		c0-16.997,8.498-26.202,18.412-26.202c7.082,0,12.747,4.249,12.747,4.249l2.124-14.872c0,0-8.498-3.541-16.287-3.541
		c-16.288,0-32.575,14.164-32.575,41.074c0,17.703,8.498,29.743,25.493,29.743C377.495,432.116,385.285,429.992,385.285,429.992z"/>
	<path fill="#FFFFFF" d="M187.707,374.046c-9.914,0-16.996,2.833-16.996,2.833l-2.124,12.038c0,0,6.373-2.832,15.579-2.832
		c4.958,0,9.207,0.708,9.207,4.957c0,2.833-0.709,3.541-0.709,3.541s-4.249,0-6.373,0c-12.039,0-25.494,4.957-25.494,21.244
		c0,12.748,8.498,15.58,13.456,15.58c9.914,0,14.163-6.373,14.872-6.373l-0.709,5.665h12.747l5.666-38.949
		C206.828,374.754,192.664,374.046,187.707,374.046z M190.54,405.914c0,2.124-1.416,13.455-9.914,13.455
		c-4.249,0-5.666-3.542-5.666-5.666c0-3.54,2.125-8.497,12.747-8.497C189.832,405.914,190.54,405.914,190.54,405.914z"/>
	<path fill="#FFFFFF" d="M220.283,431.407c3.541,0,21.245,0.709,21.245-18.411c0-17.705-16.996-14.165-16.996-21.246
		c0-3.541,2.833-4.957,7.79-4.957c2.124,0,9.914,0.708,9.914,0.708l2.125-12.747c0,0-4.958-1.417-13.455-1.417
		c-10.623,0-21.245,4.249-21.245,18.412c0,16.288,17.704,14.871,17.704,21.246c0,4.248-4.957,4.956-8.498,4.956
		c-6.373,0-12.746-2.125-12.746-2.125l-2.125,12.748C204.703,429.992,208.244,431.407,220.283,431.407z"/>
	<path fill="#FFFFFF" d="M502.84,362.716l-2.833,19.121c0,0-5.665-7.082-13.455-7.082c-12.747,0-24.077,15.58-24.077,33.992
		c0,11.33,5.666,23.37,17.703,23.37c8.498,0,13.456-5.665,13.456-5.665l-0.708,4.956h14.162l10.623-67.983L502.84,362.716z
		 M496.466,400.248c0,7.79-3.54,17.704-11.33,17.704c-4.958,0-7.79-4.249-7.79-11.331c0-11.33,4.957-18.411,11.33-18.411
		C493.634,388.21,496.466,391.75,496.466,400.248z"/>
	<path fill="#FFFFFF" d="M110.518,430.699l8.498-50.987l1.417,50.987h9.914l18.412-50.987l-7.79,50.987h14.871l11.331-67.983h-23.37
		l-14.163,41.781l-0.708-41.781h-20.537l-11.331,67.983H110.518z"/>
	<path fill="#FFFFFF" d="M330.049,430.699c4.248-23.369,4.956-42.489,14.87-38.949c1.417-9.206,3.541-12.747,4.958-16.288
		c0,0-0.708,0-2.832,0c-6.374,0-11.332,8.498-11.332,8.498l1.416-7.79h-13.454l-9.207,55.237h15.581V430.699z"/>
	<path fill="#FFFFFF" d="M417.86,374.046c-9.915,0-16.996,2.833-16.996,2.833l-2.124,12.038c0,0,6.372-2.832,15.578-2.832
		c4.958,0,9.207,0.708,9.207,4.957c0,2.833-0.709,3.541-0.709,3.541s-4.248,0-6.373,0c-12.038,0-25.493,4.957-25.493,21.244
		c0,12.748,8.498,15.58,13.455,15.58c9.913,0,14.163-6.373,14.871-6.373l-0.708,5.665h12.746l5.666-38.949
		C437.688,374.754,422.816,374.046,417.86,374.046z M421.401,405.914c0,2.124-1.417,13.455-9.915,13.455
		c-4.248,0-5.666-3.542-5.666-5.666c0-3.54,2.125-8.497,12.748-8.497C420.692,405.914,420.692,405.914,421.401,405.914z"/>
	<path fill="#FFFFFF" d="M449.02,430.699c4.249-23.369,4.957-42.489,14.871-38.949c1.416-9.206,3.541-12.747,4.957-16.288
		c0,0-0.707,0-2.833,0c-6.372,0-11.331,8.498-11.331,8.498l1.417-7.79h-13.454l-9.207,55.237h15.58V430.699z"/>
</g>
</svg>
