<?xml version="1.0" encoding="utf-8"?>
<!-- Generator: Adobe Illustrator 16.0.0, SVG Export Plug-In . SVG Version: 6.00 Build 0)  -->
<!DOCTYPE svg PUBLIC "-//W3C//DTD SVG 1.1//EN" "http://www.w3.org/Graphics/SVG/1.1/DTD/svg11.dtd">
<svg version="1.1" id="Layer_1" xmlns="http://www.w3.org/2000/svg" xmlns:xlink="http://www.w3.org/1999/xlink" x="0px" y="0px"
	 width="190.006px" height="188.398px" viewBox="0 0 190.006 188.398" enable-background="new 0 0 190.006 188.398"
	 xml:space="preserve">
<g>
	<path fill="#D3D3D3" d="M66.372,123.827c-13.912-15.533-13.184-38.731,1.476-53.383c14.657-14.657,37.929-15.367,53.386-1.475
		c15.053,13.523,17.844,36.809,3.773,54.049c1.58,1.621,3.152,3.234,4.807,4.934c0.367-0.334,0.701-0.621,1.02-0.932
		c2.717-2.613,3.535-2.621,6.16-0.002c6.666,6.656,13.33,13.303,19.98,19.971c2.064,2.066,2.064,3.326,0.039,5.377
		c-2.35,2.375-4.717,4.732-7.088,7.088c-2.254,2.236-3.42,2.234-5.701-0.047c-6.125-6.115-12.238-12.246-18.357-18.365
		c-4.143-4.145-4.145-4.143-0.611-8.719c-1.604-1.57-3.211-3.145-4.828-4.729C103.214,141.655,79.898,138.93,66.372,123.827z
		 M122.224,97.727C122.12,84.13,111.19,70.795,95.065,70.928c-15.038,0.124-26.749,11.965-26.741,26.985
		c0.012,16.074,13.368,27.262,27.059,26.818C109.823,125.141,122.339,112.417,122.224,97.727z"/>
	<path fill="#D3D3D3" d="M74.384,97.833c0.094-12,9.143-20.865,20.96-20.855c12.525,0.008,20.742,10.357,20.836,20.736
		c0.105,11.465-9.551,21.318-20.949,21.006C84.534,118.956,74.286,110.206,74.384,97.833z M89.53,87.839
		c-1.807-1.816-3.256-1.955-4.712-0.569c-1.538,1.458-1.428,3.002,0.433,4.88c1.871,1.885,3.791,3.717,5.935,5.81
		c-1.992,1.924-3.883,3.723-5.746,5.553c-1.938,1.91-2.177,3.441-0.815,4.891c1.295,1.387,3.332,1.145,5.149-0.715
		c1.8-1.836,3.517-3.75,5.4-5.77c2.166,2.229,3.994,4.156,5.875,6.027c1.59,1.582,3.58,1.758,4.824,0.504
		c1.242-1.252,1.055-3.221-0.547-4.818c-1.873-1.871-3.805-3.688-6.021-5.834c2.213-2.079,4.324-3.93,6.271-5.939
		c1.811-1.864,1.439-4.521-0.781-5.117c-0.99-0.267-2.533,0.204-3.357,0.897c-2.137,1.799-4.016,3.912-6.227,6.128
		C93.298,91.766,91.45,89.768,89.53,87.839z"/>
</g>
<g>
	<g>
		<path fill="#E2E2E2" d="M162.67,10.376c-4.241,0-7.687,3.443-7.687,7.687v6.407c-16.51-14.396-37.566-22.422-60.008-22.422
			c-50.596,0-91.757,41.312-91.757,92.084c0,4.243,3.443,7.686,7.687,7.686c4.242,0,7.687-3.442,7.687-7.686
			c0-42.298,34.266-76.711,76.384-76.711c18.474,0,35.831,6.541,49.513,18.29h-7.045c-4.243,0-7.687,3.443-7.687,7.687
			c0,4.243,3.443,7.687,7.687,7.687h25.227c4.243,0,7.687-3.444,7.687-7.687V18.062C170.356,13.819,166.913,10.376,162.67,10.376z"
			/>
	</g>
</g>
<g>
	<g>
		<path fill="#E2E2E2" d="M180.007,86.753c-4.241,0-7.687,3.443-7.687,7.687c0,42.3-34.266,76.712-76.384,76.712
			c-18.26,0-35.432-6.381-49.037-17.871h7.384c4.242,0,7.686-3.445,7.686-7.687c0-4.245-3.443-7.686-7.686-7.686H29.052
			c-0.069,0-0.13,0.018-0.196,0.018c-0.292,0.006-0.58,0.046-0.873,0.09c-0.214,0.03-0.43,0.048-0.641,0.099
			c-0.254,0.057-0.503,0.151-0.754,0.234c-0.229,0.079-0.465,0.149-0.687,0.25c-0.212,0.097-0.412,0.22-0.616,0.336
			c-0.241,0.138-0.48,0.271-0.707,0.432c-0.058,0.044-0.122,0.065-0.18,0.111c-0.132,0.102-0.231,0.224-0.354,0.332
			c-0.205,0.177-0.408,0.353-0.592,0.555c-0.174,0.182-0.323,0.375-0.473,0.572c-0.15,0.195-0.296,0.39-0.431,0.599
			c-0.136,0.215-0.25,0.438-0.361,0.66c-0.111,0.219-0.215,0.442-0.304,0.673c-0.088,0.239-0.157,0.476-0.222,0.722
			c-0.062,0.236-0.126,0.469-0.165,0.713c-0.047,0.271-0.066,0.546-0.085,0.822c-0.012,0.157-0.046,0.311-0.046,0.471v25.337
			c0,4.243,3.443,7.686,7.687,7.686s7.687-3.442,7.687-7.686v-6.111c16.384,13.946,37.125,21.702,59.198,21.702
			c50.596,0,91.757-41.312,91.757-92.084C187.693,90.196,184.25,86.753,180.007,86.753z"/>
	</g>
</g>
</svg>
