<?xml version="1.0" encoding="utf-8"?>
<!-- Generator: Adobe Illustrator 16.0.0, SVG Export Plug-In . SVG Version: 6.00 Build 0)  -->
<!DOCTYPE svg PUBLIC "-//W3C//DTD SVG 1.1//EN" "http://www.w3.org/Graphics/SVG/1.1/DTD/svg11.dtd">
<svg version="1.1" id="Layer_1" xmlns="http://www.w3.org/2000/svg" xmlns:xlink="http://www.w3.org/1999/xlink" x="0px" y="0px"
	 width="153.836px" height="178.065px" viewBox="0 10.333 153.836 178.065" enable-background="new 0 10.333 153.836 178.065"
	 xml:space="preserve">
<path fill="#E2E2E2" d="M103.218,28.535c-0.608-0.427-1.367-0.579-2.093-0.416c-0.727,0.163-1.35,0.623-1.718,1.267
	c-0.018,0.031-0.04,0.061-0.06,0.09c-0.847,1.211-2.523,1.506-3.736,0.659c-1.197-0.837-2.845-0.548-3.682,0.649l-3.854,5.504
	c-0.838,1.197-0.547,2.845,0.648,3.683c0.463,0.324,0.992,0.479,1.516,0.479c0.833,0,1.654-0.394,2.167-1.128l2.596-3.708
	c2.438,0.678,5.086,0.155,7.082-1.417l3.901,2.73c1.196,0.837,2.844,0.547,3.683-0.648c0.838-1.197,0.546-2.846-0.65-3.683
	L103.218,28.535z"/>
<path fill="#E2E2E2" d="M132.461,61.844l-2.595,3.708c-0.84,1.197-0.548,2.846,0.646,3.683c0.463,0.324,0.993,0.478,1.515,0.478
	c0.834,0,1.655-0.393,2.17-1.128l3.854-5.503c0.837-1.196,0.545-2.845-0.65-3.683c-1.21-0.848-1.508-2.525-0.656-3.738
	c0.02-0.029,0.039-0.058,0.063-0.084c0.479-0.568,0.698-1.311,0.602-2.048c-0.095-0.737-0.497-1.4-1.104-1.826l-5.803-4.062
	c-1.196-0.837-2.846-0.547-3.682,0.65c-0.839,1.195-0.547,2.846,0.648,3.683l3.899,2.73
	C130.573,57.118,130.989,59.785,132.461,61.844z"/>
<path fill="#E2E2E2" d="M118.428,108.251c1.257,0,2.424,0.502,3.284,1.417c1.004,1.061,2.677,1.108,3.738,0.105
	c1.064-1.002,1.109-2.676,0.108-3.737c-1.844-1.953-4.443-3.074-7.131-3.074c-5.407,0-9.803,4.4-9.803,9.806
	s4.396,9.806,9.803,9.806c2.618,0,5.082-1.02,6.934-2.871c1.033-1.033,1.033-2.709,0-3.74c-1.032-1.032-2.707-1.032-3.739,0
	c-0.854,0.853-1.988,1.322-3.194,1.322c-2.488,0-4.515-2.025-4.515-4.517S115.939,108.251,118.428,108.251z"/>
<path fill="#E2E2E2" d="M141.973,94.141v-8.179c0-7.19-5.853-13.042-13.043-13.042h-14.031c0.82-7.09-1.495-13.326-6.378-16.746
	c-4.139-2.896-9.498-3.416-15.094-1.463c-5.29,1.848-10.211,5.729-13.852,10.929c-1.613,2.302-2.896,4.742-3.827,7.28H58.531
	l37.003-52.846l51.347,35.953l-7.82,11.174c-0.84,1.197-0.548,2.845,0.646,3.683c1.198,0.837,2.846,0.546,3.686-0.65l8.525-12.179
	c1.287-1.831,0.842-4.366-0.993-5.653L97.561,15.038c-0.885-0.622-1.963-0.861-3.03-0.675c-1.066,0.189-1.997,0.78-2.621,1.668
	L79.67,33.513V22.971c0-2.237-1.82-4.058-4.059-4.058H12.187c-2.238,0-4.059,1.821-4.059,4.058v14.477
	c0,1.461,1.185,2.644,2.645,2.644c1.461,0,2.644-1.183,2.644-2.644V24.202h7.661v48.717h-7.037c-0.208,0-0.416,0.006-0.624,0.015
	v-24.91c0-1.46-1.183-2.645-2.644-2.645c-1.46,0-2.645,1.185-2.645,2.645V74.34C3.902,76.499,1,80.898,1,85.962v66.611
	c0,7.19,5.85,13.04,13.041,13.04h19.744c1.461,0,2.645-1.182,2.645-2.645c0-1.46-1.184-2.645-2.645-2.645H14.041
	c-4.275,0-7.752-3.476-7.752-7.751V85.962c0-3.388,2.184-6.275,5.217-7.327c0.067-0.019,0.135-0.042,0.199-0.066
	c0.738-0.234,1.523-0.361,2.337-0.361H128.93c4.276,0,7.754,3.479,7.754,7.754v7.813h-18.93c-10.473,0-18.995,8.519-18.995,18.993
	s8.522,18.991,18.995,18.991h18.93v20.814c0,4.275-3.478,7.751-7.754,7.751h-20.204c-1.461,0-2.645,1.185-2.645,2.645
	c0,1.463,1.184,2.645,2.645,2.645h20.204c7.19,0,13.043-5.85,13.043-13.04v-21.179c5.982-1.421,10.447-6.809,10.447-13.217V107.36
	C152.418,100.948,147.955,95.561,141.973,94.141z M83.905,68.677c6.031-8.613,15.713-12.277,21.582-8.168
	c3.382,2.367,4.869,7.012,4.079,12.411H81.462C82.133,71.46,82.948,70.04,83.905,68.677z M74.381,41.065L52.076,72.921h-13.03
	V24.201h35.335V41.065z M26.367,24.201h7.391v48.718h-7.391V24.201z M147.129,118.175c0,4.576-3.72,8.296-8.295,8.296h-21.08
	c-7.557,0-13.706-6.148-13.706-13.704s6.149-13.703,13.706-13.703h21.08c4.575,0,8.295,3.721,8.295,8.297V118.175z"/>
<path fill="#E2E2E2" d="M71.485,117.925c-17.614,0-31.946,14.331-31.946,31.946c0,17.617,14.332,31.948,31.946,31.948
	c17.616,0,31.948-14.331,31.948-31.948C103.433,132.256,89.101,117.925,71.485,117.925z M71.485,176.53
	c-14.699,0-26.657-11.959-26.657-26.659s11.958-26.658,26.657-26.658c14.702,0,26.659,11.958,26.659,26.658
	S86.187,176.53,71.485,176.53z"/>
<g>
	<path fill="#D3D3D3" d="M54.13,164.995c-8.226-9.184-7.795-22.9,0.873-31.565c8.667-8.668,22.429-9.088,31.569-0.871
		c8.901,7.997,10.553,21.765,2.231,31.96c0.935,0.959,1.863,1.911,2.842,2.917c0.217-0.198,0.415-0.367,0.604-0.552
		c1.606-1.547,2.09-1.549,3.641-0.002c3.943,3.938,7.884,7.866,11.816,11.81c1.22,1.224,1.22,1.968,0.022,3.18
		c-1.388,1.405-2.788,2.798-4.191,4.191c-1.332,1.323-2.02,1.321-3.371-0.027c-3.622-3.618-7.236-7.239-10.855-10.86
		c-2.449-2.45-2.451-2.448-0.361-5.154c-0.949-0.929-1.899-1.859-2.854-2.796C75.917,175.537,62.128,173.927,54.13,164.995z
		 M87.157,149.56c-0.061-8.039-6.524-15.922-16.06-15.845c-8.892,0.075-15.817,7.075-15.813,15.957
		c0.007,9.505,7.904,16.12,16,15.858C79.824,165.771,87.225,158.249,87.157,149.56z"/>
	<path fill="#D3D3D3" d="M58.869,149.626c0.056-7.097,5.406-12.338,12.394-12.333c7.406,0.006,12.265,6.126,12.322,12.263
		c0.061,6.778-5.649,12.606-12.389,12.42C64.871,162.114,58.811,156.94,58.869,149.626z M67.825,143.715
		c-1.068-1.073-1.925-1.155-2.786-0.336c-0.911,0.864-0.845,1.775,0.255,2.888c1.106,1.112,2.242,2.198,3.51,3.435
		c-1.178,1.137-2.296,2.202-3.398,3.284c-1.146,1.127-1.287,2.034-0.481,2.893c0.765,0.819,1.97,0.675,3.044-0.425
		c1.064-1.085,2.08-2.217,3.192-3.411c1.281,1.318,2.362,2.458,3.475,3.563c0.94,0.937,2.116,1.04,2.852,0.299
		c0.734-0.74,0.624-1.905-0.324-2.849c-1.107-1.107-2.25-2.18-3.56-3.451c1.309-1.227,2.557-2.324,3.708-3.511
		c1.072-1.103,0.852-2.674-0.461-3.024c-0.584-0.158-1.498,0.119-1.985,0.529c-1.264,1.064-2.375,2.314-3.683,3.624
		C70.053,146.038,68.959,144.856,67.825,143.715z"/>
</g>
</svg>
