<?xml version="1.0" encoding="utf-8"?>
<!-- Generator: Adobe Illustrator 16.0.0, SVG Export Plug-In . SVG Version: 6.00 Build 0)  -->
<!DOCTYPE svg PUBLIC "-//W3C//DTD SVG 1.1//EN" "http://www.w3.org/Graphics/SVG/1.1/DTD/svg11.dtd">
<svg version="1.1" id="Layer_1" xmlns="http://www.w3.org/2000/svg" xmlns:xlink="http://www.w3.org/1999/xlink" x="0px" y="0px"
	 width="222.583px" height="212.839px" viewBox="0 0 222.583 212.839" enable-background="new 0 0 222.583 212.839"
	 xml:space="preserve">
<g>
	<g>
		<path fill="#E2E2E2" d="M212.425,86.75l-98.89-72.405c-1.908-1.396-4.498-1.396-6.404,0L8.241,86.75
			c-2.415,1.768-2.939,5.161-1.172,7.576c1.77,2.416,5.162,2.939,7.577,1.172l95.688-70.062l95.687,70.061
			c0.965,0.708,2.087,1.047,3.198,1.047c1.669,0,3.315-0.768,4.377-2.218C215.367,91.911,214.84,88.519,212.425,86.75z"/>
	</g>
</g>
<g>
	<g>
		<path fill="#E2E2E2" d="M186.221,96.725c-2.992,0-5.42,2.427-5.42,5.42v86.279h-43.362v-47.097
			c0-14.945-12.161-27.104-27.105-27.104c-14.945,0-27.105,12.159-27.105,27.104v47.098H39.865v-86.279
			c0-2.994-2.427-5.421-5.42-5.421c-2.994,0-5.42,2.427-5.42,5.421v91.701c0,2.992,2.427,5.419,5.42,5.419h54.205
			c2.851,0,5.183-2.201,5.399-4.998c0.013-0.126,0.021-0.264,0.021-0.421v-52.52c0-8.967,7.296-16.264,16.264-16.264
			c8.967,0,16.264,7.297,16.264,16.264v52.52c0,0.156,0.008,0.291,0.021,0.417c0.213,2.798,2.546,5.002,5.398,5.002h54.205
			c2.993,0,5.42-2.427,5.42-5.419v-91.701C191.642,99.152,189.215,96.725,186.221,96.725z"/>
	</g>
</g>
<g>
	<path fill="#D3D3D3" d="M87.262,94.811c-10.985-12.269-10.412-30.589,1.167-42.16c11.572-11.578,29.95-12.139,42.159-1.164
		c11.893,10.675,14.095,29.07,2.982,42.685c1.244,1.281,2.49,2.554,3.795,3.894c0.288-0.265,0.554-0.492,0.808-0.736
		c2.144-2.065,2.793-2.067,4.869,0c5.26,5.254,10.523,10.505,15.771,15.771c1.632,1.636,1.632,2.625,0.027,4.245
		c-1.851,1.877-3.717,3.735-5.596,5.602c-1.782,1.768-2.702,1.76-4.504-0.041c-4.838-4.83-9.658-9.668-14.499-14.501
		c-3.267-3.278-3.271-3.274-0.479-6.887c-1.271-1.236-2.537-2.484-3.819-3.739C116.357,108.89,97.939,106.732,87.262,94.811z
		 M131.366,74.194c-0.082-10.741-8.711-21.274-21.447-21.166c-11.873,0.1-21.128,9.449-21.123,21.312
		c0.015,12.692,10.559,21.533,21.372,21.182C121.574,95.848,131.458,85.797,131.366,74.194z"/>
	<path fill="#D3D3D3" d="M93.589,74.276c0.07-9.476,7.219-16.473,16.558-16.468c9.879,0.006,16.373,8.181,16.444,16.376
		c0.087,9.054-7.538,16.836-16.541,16.586C101.603,90.96,93.509,84.047,93.589,74.276z M105.546,66.386
		c-1.427-1.435-2.567-1.543-3.715-0.446c-1.217,1.154-1.128,2.371,0.342,3.852c1.472,1.488,2.993,2.937,4.682,4.591
		c-1.567,1.51-3.064,2.937-4.53,4.385c-1.535,1.505-1.724,2.712-0.65,3.86c1.021,1.093,2.63,0.904,4.071-0.564
		c1.418-1.448,2.778-2.962,4.261-4.557c1.716,1.762,3.152,3.283,4.64,4.764c1.262,1.244,2.83,1.385,3.813,0.395
		c0.988-0.988,0.833-2.543-0.431-3.809c-1.475-1.477-3.002-2.913-4.755-4.606c1.75-1.645,3.416-3.102,4.949-4.688
		c1.432-1.474,1.138-3.573-0.62-4.044c-0.778-0.202-1.994,0.162-2.646,0.711c-1.688,1.419-3.169,3.089-4.919,4.839
		C108.526,69.489,107.068,67.908,105.546,66.386z"/>
</g>
</svg>
