<?xml version="1.0" encoding="utf-8"?>
<!-- Generator: Adobe Illustrator 16.0.0, SVG Export Plug-In . SVG Version: 6.00 Build 0)  -->
<!DOCTYPE svg PUBLIC "-//W3C//DTD SVG 1.1//EN" "http://www.w3.org/Graphics/SVG/1.1/DTD/svg11.dtd">
<svg version="1.1" id="Layer_1" xmlns="http://www.w3.org/2000/svg" xmlns:xlink="http://www.w3.org/1999/xlink" x="0px" y="0px"
	 width="209.41px" height="200.189px" viewBox="0 0 209.41 200.189" enable-background="new 0 0 209.41 200.189"
	 xml:space="preserve">
<path fill="#E2E2E2" d="M34.932,168.031c0-37.936,0-74.883,0-112.542c-4.846,0-9.153,0.084-13.46-0.014
	C10.088,55.218,2.077,49.144,0.591,37.953c-0.987-7.415-0.697-15.257,0.563-22.645c1.55-9.132,9.404-15.175,18.682-15.202
	c47.722-0.142,95.445-0.142,143.167,0.011c9.229,0.028,17.08,6.167,18.543,15.342c1.207,7.602,1.381,15.659,0.287,23.267
	c-1.52,10.604-9.373,16.432-20.125,16.729c-4.332,0.123-8.674,0.021-13.557,0.021c0,9.597,0,18.799,0,28.308
	c18.457,1.387,33.969,8.521,45,23.891c17.943,24.999,12.406,59.646-12.377,77.719c-25.254,18.412-59.865,13.197-78.122-12.066
	c-2.868-3.97-5.734-5.496-10.625-5.416C73.328,168.21,54.617,168.031,34.932,168.031z M62.951,154.243c10.097,0,19.813,0,30.015,0
	c-1.421-6.172,0.444-12.574-6.496-16.779c-4.131-2.504-1.928-8.576,3.096-10.707c1.603-0.68,3.605-1.584,4.308-2.959
	c1.96-3.805,3.333-7.908,4.961-11.977c-24.952-1.184-35.212-9.35-35.212-27.813c-0.007-15.521,10.489-26.905,25.275-27.695
	c7.923-0.424,15.111,1.146,21.211,6.489c8.734,7.645,9.826,17.762,8.475,29.091c3.607-1.574,6.258-3.281,9.131-3.861
	c5.199-1.046,6.131-4.029,5.951-8.804c-0.357-9.575-0.104-19.175-0.104-28.769c0-7.545,0-15.089,0-22.53
	c-10.621-0.838-12.809-3.119-14.176-14.046c-18.807,0-37.624,0-56.413,0c-0.58,10.624-2.707,12.847-13.541,14.332
	c0,37.155,0,74.351,0,111.507C60.31,141.327,62.438,143.556,62.951,154.243z M189.777,139.988
	c-0.154-23.522-18.898-42.023-42.436-41.887c-23.539,0.142-42.051,18.885-41.906,42.419c0.148,23.521,18.906,42.038,42.438,41.896
	C171.371,182.271,189.933,163.481,189.777,139.988z M91.125,98.299c8.293,0.104,14.496-5.985,14.521-14.255
	c0.029-8.023-5.797-14.104-13.76-14.354c-8.301-0.264-14.625,5.67-14.843,13.924C76.826,91.868,82.896,98.197,91.125,98.299z
	 M34.767,12.952c-7.208,2.009-16.481-3.511-19.582,4.734c-2.346,6.237-2.065,15.361,0.931,21.212
	c3.396,6.63,12.071,2.228,18.65,3.172C34.767,32.194,34.767,23.156,34.767,12.952z M147.904,42.51
	c7.209-1.943,16.463,3.492,19.568-4.707c2.361-6.23,2.104-15.354-0.877-21.208c-3.393-6.661-12.07-2.213-18.691-3.193
	C147.904,23.273,147.904,32.306,147.904,42.51z"/>
<path fill="#E2E2E2" d="M99.067,36.175c-2.453,1.782-4.725,4.677-7.395,5.1c-3.979,0.628-7.632-2.054-6.688-6.417
	c0.572-2.652,3.758-6.401,6.021-6.586c2.532-0.205,5.35,3.057,8.041,4.807C99.058,34.111,99.062,35.142,99.067,36.175z"/>
<g>
	<path fill="#D3D3D3" d="M120.449,164.882c-13.164-14.706-12.48-36.667,1.398-50.533c13.871-13.874,35.898-14.547,50.529-1.395
		c14.256,12.795,16.896,34.845,3.58,51.166c1.49,1.529,2.98,3.063,4.547,4.664c0.344-0.316,0.662-0.594,0.969-0.879
		c2.564-2.475,3.344-2.484,5.832,0c6.307,6.293,12.611,12.59,18.904,18.898c1.953,1.96,1.953,3.147,0.039,5.092
		c-2.223,2.247-4.455,4.479-6.707,6.711c-2.143,2.122-3.236,2.113-5.402-0.043c-5.799-5.792-11.576-11.592-17.375-17.386
		c-3.918-3.926-3.922-3.923-0.578-8.254c-1.521-1.487-3.037-2.979-4.578-4.479C155.328,181.76,133.246,179.176,120.449,164.882z
		 M173.316,140.173c-0.096-12.875-10.445-25.497-25.713-25.374c-14.23,0.125-25.322,11.327-25.311,25.55
		c0.016,15.216,12.656,25.808,25.615,25.39C161.578,166.128,173.431,154.077,173.316,140.173z"/>
	<path fill="#D3D3D3" d="M128.037,140.269c0.082-11.359,8.648-19.749,19.842-19.734c11.848,0.006,19.629,9.801,19.713,19.625
		c0.105,10.854-9.033,20.186-19.822,19.885C137.638,160.268,127.937,151.986,128.037,140.269z M142.369,130.811
		c-1.711-1.72-3.076-1.847-4.463-0.534c-1.455,1.379-1.35,2.842,0.416,4.618c1.764,1.786,3.584,3.521,5.613,5.502
		c-1.879,1.813-3.672,3.521-5.428,5.255c-1.842,1.805-2.07,3.252-0.783,4.627c1.221,1.313,3.16,1.082,4.879-0.678
		c1.699-1.734,3.33-3.55,5.111-5.462c2.049,2.111,3.773,3.937,5.555,5.708c1.516,1.495,3.395,1.663,4.57,0.477
		c1.182-1.186,0.996-3.047-0.518-4.563c-1.766-1.774-3.598-3.489-5.699-5.521c2.1-1.975,4.094-3.723,5.938-5.625
		c1.709-1.766,1.354-4.281-0.752-4.848c-0.93-0.244-2.391,0.194-3.168,0.854c-2.021,1.701-3.803,3.703-5.896,5.803
		C145.939,134.527,144.189,132.635,142.369,130.811z"/>
</g>
</svg>
