<?xml version="1.0" encoding="utf-8"?>
<!-- Generator: Adobe Illustrator 16.0.0, SVG Export Plug-In . SVG Version: 6.00 Build 0)  -->
<!DOCTYPE svg PUBLIC "-//W3C//DTD SVG 1.1//EN" "http://www.w3.org/Graphics/SVG/1.1/DTD/svg11.dtd">
<svg version="1.1" id="Layer_1" xmlns="http://www.w3.org/2000/svg" xmlns:xlink="http://www.w3.org/1999/xlink" x="0px" y="0px"
	 width="251.178px" height="201.855px" viewBox="0 0 251.178 201.855" enable-background="new 0 0 251.178 201.855"
	 xml:space="preserve">
<path fill="#E2E2E2" d="M215.774,110.232c21.549,13.586,34.436,31.938,35.404,58.305c-5.465,0-10.49,0-15.763,0
	c-3.022-25.774-16.919-42.301-42.395-49.108c0-5.753,0-11.431,0-17.539c14.412-4.466,24.949-12.484,24.808-29.502
	c-0.14-16.682-10.661-24.413-24.898-28.849c0-5.262,0-10.168,0-15.047c16.073-1.122,32.848,13.611,37.834,25.665
	C238.939,73.891,234.452,92.343,215.774,110.232z"/>
<path fill="#E2E2E2" d="M57.606,119.443c-25.77,7.322-39.32,23.111-42.396,49.713c-2.397,0-4.919,0-7.438,0c-2.541,0-5.076,0-7.52,0
	c-2.043-21.366,8.198-38.789,34.361-59.188C17.19,94.983,11.02,76.739,19.797,54.888c6.098-15.173,21.954-26.151,37.705-26.759
	c0.135,2.016,0.14,4.06,0.419,6.068c0.878,6.334-0.668,10.099-7.679,12.601c-10.837,3.867-16.941,12.409-17.509,24.409
	c-0.579,12.229,4.117,22.563,15.363,26.417c10.093,3.466,10.479,9.488,9.803,17.509C57.787,116.411,57.724,117.697,57.606,119.443z"
	/>
<path fill="none" d="M102.958,50.355c-0.131,17.423,14.714,32.514,31.832,32.023c15.753,0.51,31.087-11.979,31.999-30.132
	c-3.188-17.015-16.436-30.319-33.477-33.596C115.221,19.506,103.083,34.754,102.958,50.355z M134.837,25.748
	c14.014-0.014,24.748,10.502,24.863,24.729c0.108,14.672-12.039,25.053-24.73,24.775c-13.513,0.369-24.968-11.319-24.842-24.919
	C110.24,38.028,119.987,25.753,134.837,25.748z"/>
<path fill="none" d="M93.965,86.203c1.951-2.018,3.818-3.928,5.697-5.85C88.286,66.407,86.217,49.133,91.704,34.47
	c-5.399,7.058-8.665,15.84-8.692,25.383c-0.025,8.52,2.439,16.407,6.693,23.038c0.844,0.254,1.764,0.98,3.041,2.214
	C93.124,85.459,93.522,85.806,93.965,86.203z"/>
<path fill="none" d="M130.145,50.442c-2.64,2.538-4.92,4.695-7.143,6.915c-1.902,1.897-2.127,4.229-0.653,5.717
	c1.474,1.483,3.841,1.279,5.722-0.591c2.236-2.23,4.403-4.515,6.968-7.154c2.233,2.397,4.276,4.659,6.409,6.84
	c2.15,2.204,4.563,2.493,6.104,0.855c1.618-1.727,1.33-3.543-0.973-5.804c-2.205-2.182-4.453-4.311-6.806-6.583
	c2.537-2.488,4.811-4.663,7.033-6.894c2.204-2.223,2.336-4.06,0.516-5.783c-1.735-1.641-3.448-1.483-5.596,0.671
	c-2.271,2.286-4.463,4.651-6.729,7.029c-2.625-2.633-4.853-5.135-7.382-7.267c-0.976-0.825-2.812-1.382-3.983-1.068
	c-2.63,0.707-3.074,3.857-0.925,6.071C125.018,45.779,127.512,47.973,130.145,50.442z"/>
<path fill="none" d="M105.093,85.779c-1.92,1.878-3.825,3.751-5.724,5.605c1.414,1.831,2.306,3.028,2.736,4.021
	c6.574,4.306,14.426,6.853,22.932,6.931c9.572,0.09,18.412-3.093,25.548-8.45C135.991,99.195,118.891,97.051,105.093,85.779z"/>
<path fill="none" d="M91.83,108.768c-0.042-0.037-0.081-0.07-0.126-0.104c-0.162,0.161-0.324,0.327-0.492,0.491
	C91.427,109.025,91.618,108.893,91.83,108.768z"/>
<path fill="#E2E2E2" d="M89.706,82.891c-4.254-6.631-6.719-14.52-6.693-23.038c0.027-9.543,3.292-18.325,8.692-25.384
	c2.562-6.838,6.753-13.114,12.43-18.217c13.438-12.073,31.841-14.809,47.566-8.578C130.793-2.854,104.744-0.395,86.4,16.066
	C74.224,26.992,67.485,40.681,66.782,57.195c-0.598,14.013,3.049,26.006,10.27,36.299c2.805-2.796,5.594-5.597,8.396-8.389
	C87.32,83.224,88.423,82.502,89.706,82.891z"/>
<path fill="#E2E2E2" d="M166.789,52.247c0.027-0.56,0.087-1.105,0.087-1.675c0.012-17.813-13.873-31.854-31.706-32.005
	c-0.632-0.003-1.233,0.054-1.854,0.084C150.355,21.927,163.601,35.233,166.789,52.247z"/>
<path fill="#E2E2E2" d="M159.03,108.626c26.753-20.674,29.914-51.471,18.996-74.231c5.896,15.553,3.092,33.599-8.83,46.914
	c-5.196,5.801-11.619,10.031-18.609,12.575c-7.136,5.357-15.975,8.54-25.548,8.45c-8.506-0.078-16.357-2.625-22.932-6.931
	c0.847,1.949-0.209,3.065-3.463,6.318c-2.312,2.313-4.626,4.629-6.938,6.938c0.045,0.033,0.083,0.066,0.126,0.104
	c-0.212,0.125-0.402,0.26-0.618,0.389c-4.779,4.785-9.557,9.57-14.345,14.354c-2.541,2.544-3.93,2.666-6.306,0.479
	c-20.128,17.453-29.348,37.383-28.838,61.733c5.279,0,10.564,0,15.812,0c2.219-28.76,16.249-49.962,39.502-60.676
	c4.299-1.983,6.938-1.395,11.02,1.461c14.006,9.8,16.796,21.454,8.47,36.142c-0.747,1.33-0.974,2.948-1.474,4.424
	c-6.807,20.144-6.807,20.144,9.084,34.472c0.182,0.162,0.449,0.229,2.639,1.313c3.323-3.793,6.443-8.037,10.264-11.515
	c3.821-3.475,4.686-6.673,2.725-11.598c-3.168-7.94-4.709-16.6-8.384-24.252c-4.722-9.811-2.477-16.281,5.474-23.313
	c12.086-10.691,11.701-11.373,25.35-2.215c19.734,13.243,29.621,32.147,30.849,55.848c5.508,0,10.588,0,15.649,0
	C210.015,155.857,196.365,134.782,159.03,108.626z"/>
<path fill="#FFFFFF" d="M167.543,60.325c0.009-2.765-0.266-5.462-0.754-8.078c-0.912,18.151-16.246,30.642-31.999,30.132
	c-17.118,0.489-31.963-14.602-31.832-32.023c0.125-15.601,12.264-30.849,30.354-31.703c-2.528-0.486-5.128-0.78-7.805-0.805
	c-13.752-0.124-26.021,6.448-33.805,16.623c-5.487,14.663-3.418,31.938,7.958,45.884c-1.878,1.922-3.746,3.832-5.697,5.85
	c-0.443-0.396-0.841-0.744-1.219-1.099c-1.277-1.232-2.197-1.96-3.041-2.214c3.2,4.998,7.424,9.261,12.399,12.514
	c-0.432-0.991-1.322-2.188-2.736-4.021c1.898-1.854,3.804-3.729,5.724-5.605c13.798,11.272,30.898,13.417,45.492,8.104
	C160.812,86.213,167.499,74.048,167.543,60.325z"/>
<path fill="#FFFFFF" d="M169.249,21.091c3.52,3.944,6.451,8.45,8.776,13.303c-2.262-5.964-5.76-11.574-10.58-16.392
	c-4.644-4.64-10.019-8.061-15.744-10.328C158.16,10.927,164.151,15.381,169.249,21.091z"/>
<path fill="#FFFFFF" d="M91.704,108.662c2.313-2.312,4.626-4.628,6.938-6.939c3.254-3.25,4.31-4.369,3.463-6.316
	c-4.977-3.253-9.199-7.516-12.399-12.514c-1.283-0.389-2.387,0.333-4.257,2.214c-2.804,2.792-5.593,5.593-8.396,8.389
	C80.938,99.027,85.84,104.075,91.704,108.662z"/>
<path fill="#E2E2E2" d="M104.134,16.252c-5.677,5.103-9.869,11.379-12.43,18.218c7.785-10.175,20.053-16.747,33.805-16.623
	c2.676,0.023,5.274,0.317,7.805,0.805c0.621-0.03,1.226-0.087,1.855-0.084c17.833,0.15,31.719,14.19,31.706,32.005
	c0,0.568-0.059,1.115-0.087,1.675c0.489,2.616,0.763,5.313,0.754,8.078c-0.044,13.724-6.732,25.889-16.958,33.559
	c6.99-2.544,13.414-6.774,18.609-12.575c11.922-13.315,14.726-31.361,8.83-46.914c-2.326-4.853-5.258-9.357-8.776-13.303
	c-5.099-5.71-11.089-10.163-17.548-13.417C135.976,1.445,117.572,4.179,104.134,16.252z"/>
<path fill="#FFFFFF" d="M134.968,75.253c12.693,0.276,24.842-10.104,24.731-24.775c-0.115-14.229-10.852-24.743-24.863-24.729
	c-14.851,0.006-24.598,12.279-24.709,24.587C110.001,63.934,121.456,75.623,134.968,75.253z M123.634,37.326
	c1.172-0.313,3.008,0.243,3.983,1.068c2.53,2.132,4.757,4.634,7.382,7.267c2.266-2.378,4.458-4.743,6.729-7.029
	c2.146-2.154,3.859-2.312,5.596-0.671c1.82,1.725,1.689,3.562-0.516,5.783c-2.224,2.229-4.496,4.404-7.033,6.894
	c2.354,2.272,4.601,4.401,6.806,6.583c2.303,2.261,2.591,4.077,0.974,5.804c-1.54,1.638-3.956,1.349-6.104-0.855
	c-2.133-2.181-4.176-4.441-6.409-6.84c-2.564,2.642-4.731,4.924-6.968,7.154c-1.881,1.87-4.249,2.074-5.722,0.591
	c-1.474-1.487-1.249-3.818,0.653-5.717c2.223-2.22,4.503-4.377,7.143-6.915c-2.633-2.469-5.126-4.663-7.436-7.044
	C120.56,41.184,121.003,38.033,123.634,37.326z"/>
<g>
	<path fill="#D3D3D3" d="M101.535,88.537c-1.535,1.498-3.063,3-4.582,4.483c3.352,4.344,3.352,4.344-0.579,8.271
		c-5.811,5.811-11.61,11.626-17.423,17.43c-2.16,2.166-3.27,2.166-5.411,0.045c-2.245-2.232-4.492-4.474-6.726-6.73
		c-1.923-1.942-1.917-3.137,0.04-5.102c6.309-6.32,12.634-12.633,18.962-18.939c2.484-2.491,3.265-2.481,5.839,0
		c0.302,0.288,0.618,0.564,0.973,0.88c1.563-1.612,3.059-3.142,4.557-4.679c-13.351-16.358-10.703-38.453,3.581-51.286
		c14.667-13.18,36.747-12.506,50.653,1.4c13.909,13.905,14.598,35.908,1.399,50.65C139.985,99.287,117.865,101.875,101.535,88.537z
		 M125.297,85.815c12.986,0.422,25.663-10.193,25.67-25.445c0.011-14.249-11.104-25.486-25.371-25.605
		c-15.302-0.125-25.669,12.525-25.77,25.431C99.718,74.129,111.596,86.208,125.297,85.815z"/>
	<path fill="#D3D3D3" d="M125.44,80.115c-10.817,0.296-19.978-9.055-19.876-19.938c0.09-9.845,7.885-19.664,19.768-19.668
		c11.211-0.011,19.801,8.397,19.893,19.778C145.314,72.032,135.595,80.335,125.44,80.115z M125.461,56.437
		c-2.102-2.107-3.882-4.106-5.909-5.815c-0.779-0.657-2.244-1.103-3.184-0.854c-2.106,0.566-2.459,3.086-0.74,4.856
		c1.849,1.906,3.844,3.66,5.945,5.643c-2.108,2.025-3.936,3.754-5.713,5.527c-1.521,1.52-1.697,3.386-0.521,4.572
		c1.181,1.189,3.072,1.023,4.576-0.472c1.789-1.782,3.522-3.611,5.576-5.726c1.79,1.918,3.421,3.731,5.126,5.475
		c1.722,1.764,3.652,1.995,4.886,0.682c1.295-1.375,1.065-2.831-0.773-4.643c-1.77-1.738-3.563-3.446-5.454-5.267
		c2.032-1.991,3.854-3.727,5.629-5.515c1.767-1.779,1.871-3.243,0.414-4.627c-1.383-1.314-2.756-1.188-4.477,0.534
		C129.03,52.644,127.277,54.531,125.461,56.437z"/>
</g>
</svg>
