<?xml version="1.0" encoding="utf-8"?>
<!-- Generator: Adobe Illustrator 16.0.0, SVG Export Plug-In . SVG Version: 6.00 Build 0)  -->
<!DOCTYPE svg PUBLIC "-//W3C//DTD SVG 1.1//EN" "http://www.w3.org/Graphics/SVG/1.1/DTD/svg11.dtd">
<svg version="1.1" id="Layer_1" xmlns="http://www.w3.org/2000/svg" xmlns:xlink="http://www.w3.org/1999/xlink" x="0px" y="0px"
	 width="222.583px" height="212.839px" viewBox="0 0 222.583 212.839" enable-background="new 0 0 222.583 212.839"
	 xml:space="preserve">
<path fill="#E2E2E2" d="M2.568,167.615c6.059-12.211,8.937-13.691,22.623-12.738c2.349,0.164,5.417-0.617,7.127-2.125
	c12.092-10.656,26.337-6.461,40.421-5.629c-10.304,6.449-20.696,12.76-30.84,19.441c-2.402,1.58-4.877,4.104-5.764,6.719
	c-3.049,8.973-7.783,13.682-15.563,14.174c-7.543,0.48-13.046-3.545-16.997-12.387c-0.2-0.449-0.667-0.777-1.008-1.158
	C2.568,171.814,2.568,169.712,2.568,167.615z"/>
<path fill="#E2E2E2" d="M85.219,75.954C62.836,53.06,69.438,27.405,83.447,13.707c15.758-15.41,41.355-15.695,57.713-0.867
	c17.978,16.298,17.873,39.265-0.594,63.233c18.813,11.873,30.5,28.126,30.834,51.728c-5.236,0-10.109,0-15.681,0
	c-1.526-13.963-6.465-27.165-19.45-34.228c-7.902-4.297-17.695-7.354-26.57-7.188c-21.666,0.4-36.75,17.036-39.836,41.481
	c-5.054,0-10.16,0-15.826,0C54.371,104.343,65.867,88.079,85.219,75.954z M137.986,43.547
	c-0.098-14.154-11.388-25.406-25.402-25.324c-14.293,0.087-25.312,11.669-25.11,26.396c0.187,13.792,11.167,24.768,25.003,24.987
	C126.742,69.83,138.08,58.245,137.986,43.547z"/>
<path fill="#E2E2E2" d="M105.4,145.816c4.971,0,9.604,0,15.371,0c0,9.699-0.348,19.27,0.188,28.791
	c0.193,3.453,1.816,7.338,3.986,10.078c5.797,7.32,5.883,17.119-0.531,23.404c-6.443,6.307-16.807,6.338-23.303,0.068
	c-6.451-6.225-6.375-16.061-0.676-23.402c2.273-2.938,3.792-7.109,4.063-10.83c0.611-8.574,0.242-17.221,0.297-25.838
	C104.797,147.599,105.042,147.111,105.4,145.816z"/>
<path fill="#E2E2E2" d="M152.713,147.095c14.493-1.102,28.965-4.766,41.294,6.08c1.867,1.645,5.847,1.574,8.729,1.24
	c9.857-1.133,17.668,4.15,19.569,13.764c1.64,8.277-4.172,16.707-12.874,18.666c-9.102,2.053-16.949-3.068-19.898-12.109
	c-1.01-3.098-3.405-6.367-6.098-8.188C173.406,159.755,162.986,153.531,152.713,147.095z"/>
<g>
	<path fill="#FFFFFF" d="M96.525,62.518c-8.093-9.037-7.67-22.531,0.86-31.054c8.524-8.529,22.063-8.942,31.056-0.858
		c8.76,7.863,10.383,21.412,2.197,31.445c0.917,0.942,1.835,1.882,2.796,2.865c0.213-0.192,0.409-0.362,0.595-0.539
		c1.58-1.521,2.057-1.526,3.586,0c3.875,3.866,7.752,7.738,11.619,11.616c1.201,1.204,1.201,1.934,0.021,3.128
		c-1.365,1.383-2.739,2.752-4.123,4.127c-1.313,1.303-1.99,1.298-3.318-0.029c-3.563-3.559-7.115-7.123-10.68-10.686
		c-2.407-2.411-2.41-2.408-0.354-5.073c-0.936-0.908-1.869-1.827-2.813-2.75C117.958,72.893,104.39,71.302,96.525,62.518z
		 M129.014,47.335c-0.06-7.912-6.417-15.671-15.799-15.594c-8.746,0.073-15.563,6.962-15.56,15.702
		c0.01,9.35,7.778,15.858,15.744,15.602C121.802,63.284,129.083,55.882,129.014,47.335z"/>
	<path fill="#FFFFFF" d="M101.186,47.392c0.052-6.979,5.317-12.134,12.198-12.129c7.277,0.005,12.061,6.027,12.113,12.063
		c0.064,6.669-5.553,12.403-12.185,12.22C107.09,59.685,101.126,54.593,101.186,47.392z M109.994,41.582
		c-1.051-1.058-1.891-1.137-2.737-0.33c-0.896,0.851-0.831,1.747,0.252,2.838c1.084,1.099,2.205,2.163,3.45,3.382
		c-1.155,1.116-2.258,2.163-3.338,3.229c-1.131,1.112-1.27,2.001-0.479,2.844c0.752,0.806,1.938,0.666,2.998-0.416
		c1.046-1.064,2.048-2.181,3.14-3.355c1.264,1.298,2.322,2.416,3.418,3.507c0.93,0.919,2.084,1.02,2.808,0.293
		c0.728-0.729,0.614-1.873-0.316-2.805c-1.087-1.09-2.212-2.145-3.503-3.394c1.289-1.213,2.516-2.288,3.646-3.456
		c1.054-1.084,0.838-2.628-0.457-2.977c-0.573-0.152-1.469,0.118-1.949,0.522c-1.244,1.047-2.335,2.275-3.624,3.566
		C112.189,43.865,111.115,42.705,109.994,41.582z"/>
</g>
<g>
	<path fill="#D3D3D3" d="M96.525,59.171c-8.093-9.037-7.67-22.533,0.86-31.057c8.524-8.529,22.063-8.942,31.056-0.857
		c8.76,7.863,10.383,21.414,2.197,31.444c0.917,0.944,1.835,1.882,2.796,2.867c0.213-0.194,0.409-0.362,0.595-0.541
		c1.58-1.521,2.057-1.523,3.586,0c3.875,3.869,7.752,7.738,11.619,11.618c1.201,1.204,1.201,1.934,0.021,3.126
		c-1.365,1.384-2.739,2.753-4.123,4.127c-1.313,1.303-1.99,1.298-3.318-0.029c-3.563-3.559-7.115-7.123-10.68-10.683
		c-2.407-2.414-2.41-2.411-0.354-5.073c-0.936-0.911-1.869-1.83-2.813-2.753C117.958,69.542,104.39,67.953,96.525,59.171z
		 M129.014,43.984c-0.06-7.912-6.417-15.671-15.799-15.592c-8.746,0.074-15.563,6.961-15.56,15.7
		c0.01,9.35,7.778,15.861,15.744,15.604C121.802,59.936,129.083,52.531,129.014,43.984z"/>
	<path fill="#D3D3D3" d="M101.186,44.044c0.052-6.979,5.317-12.135,12.198-12.131c7.277,0.005,12.061,6.026,12.113,12.063
		c0.064,6.671-5.553,12.404-12.185,12.22C107.09,56.335,101.126,51.242,101.186,44.044z M109.994,38.232
		c-1.051-1.056-1.891-1.136-2.737-0.328c-0.896,0.85-0.831,1.747,0.252,2.838c1.084,1.096,2.205,2.163,3.45,3.382
		c-1.155,1.113-2.258,2.163-3.338,3.229c-1.131,1.11-1.27,1.999-0.479,2.844c0.752,0.806,1.938,0.666,2.998-0.416
		c1.046-1.066,2.048-2.181,3.14-3.356c1.264,1.298,2.322,2.418,3.418,3.508c0.93,0.917,2.084,1.021,2.808,0.291
		c0.728-0.727,0.614-1.873-0.316-2.805c-1.087-1.088-2.212-2.145-3.503-3.394c1.289-1.21,2.516-2.284,3.646-3.453
		c1.054-1.086,0.838-2.632-0.457-2.979c-0.573-0.15-1.469,0.119-1.949,0.523c-1.244,1.046-2.335,2.276-3.624,3.565
		C112.189,40.518,111.115,39.354,109.994,38.232z"/>
</g>
</svg>
