<?xml version="1.0" encoding="utf-8"?>
<!-- Generator: Adobe Illustrator 16.0.0, SVG Export Plug-In . SVG Version: 6.00 Build 0)  -->
<!DOCTYPE svg PUBLIC "-//W3C//DTD SVG 1.1//EN" "http://www.w3.org/Graphics/SVG/1.1/DTD/svg11.dtd">
<svg version="1.1" id="Layer_1" xmlns="http://www.w3.org/2000/svg" xmlns:xlink="http://www.w3.org/1999/xlink" x="0px" y="0px"
	 width="190.006px" height="188.398px" viewBox="0 0 190.006 188.398" enable-background="new 0 0 190.006 188.398"
	 xml:space="preserve">
<path fill="none" d="M165.012,20.128c-32.119-0.002-64.234-0.002-96.351,0.006c-6.823,0-8.976,2.183-8.979,9.081
	c-0.006,18.294-0.002,36.588-0.003,54.885c0,18.533-0.008,37.068,0.007,55.604c0.002,6.063,2.362,8.407,8.399,8.407
	c32.356,0,64.712,0,97.069,0c5.793-0.002,8.302-2.516,8.302-8.315c0.002-37.07,0.002-74.139,0-111.21
	C173.458,22.648,170.943,20.132,165.012,20.128z M151.674,126.623c-7.82,0.03-15.643,0.014-23.461,0.014
	c-15.482,0-30.965-0.012-46.447,0.014c-1.929,0.005-3.535-0.383-4.087-2.477c-0.669-2.537,0.927-4.383,3.818-4.389
	c11.651-0.021,23.302-0.01,34.957-0.01c11.649,0,23.301-0.011,34.954,0.005c2.931,0.005,4.167,1.204,3.996,3.771
	C155.266,125.631,154.152,126.612,151.674,126.623z M151.229,105.404c-11.572,0.02-23.143,0.01-34.715,0.01
	c-11.492,0-22.982,0.008-34.475-0.006c-2.912-0.004-4.301-1.039-4.42-3.232c-0.107-1.946,0.765-3.215,2.681-3.664
	c0.611-0.144,1.263-0.164,1.896-0.164c22.904-0.008,45.808-0.012,68.709-0.002c3.078,0,4.435,1.062,4.507,3.396
	C155.488,104.239,154.223,105.399,151.229,105.404z M151.48,84.155c-5.74,0.055-11.481,0.017-17.227,0.017
	c-5.662,0.002-11.324,0.007-16.986,0c-2-0.005-3.66-0.595-4.123-2.814c-0.518-2.48,1.021-4.199,3.812-4.217
	c6.219-0.027,12.44-0.01,18.659-0.01c5.265,0,10.527-0.014,15.794,0.005c2.752,0.011,3.944,1.022,4.016,3.309
	C155.493,82.8,154.17,84.131,151.48,84.155z M113.088,59.221c0.033-2.248,1.252-3.339,4.002-3.346
	c11.506-0.029,23.01-0.031,34.514,0c2.685,0.01,3.855,1.166,3.814,3.501c-0.043,2.306-1.244,3.372-3.957,3.382
	c-5.672,0.025-11.344,0.01-17.018,0.01c-5.752,0-11.504,0.015-17.256-0.008C114.438,62.751,113.051,61.523,113.088,59.221z
	 M151.516,41.427c-11.428,0.042-22.854,0.042-34.281,0.01c-2.893-0.01-4.166-1.172-4.147-3.494c0.019-2.274,1.41-3.446,4.194-3.456
	c5.677-0.015,11.349-0.005,17.021-0.005c5.672,0,11.346-0.015,17.021,0.005c2.837,0.01,4.101,1.117,4.101,3.499
	C155.424,40.276,154.247,41.418,151.516,41.427z"/>
<path fill="none" d="M23.955,56.009c-5.199,1.809-6.947,5.599-5.062,10.76c7.159,19.607,14.303,39.216,21.462,58.819
	c1.569,4.293,3.172,8.574,4.763,12.86c0.112-0.03,0.227-0.063,0.339-0.102c0-29.766,0-59.533,0-89.611
	c-0.717,0.195-1.172,0.296-1.609,0.443C37.215,51.45,30.576,53.705,23.955,56.009z"/>
<path fill="none" d="M95.008,162.118c-9.424,0-18.849-0.065-28.271,0.026c-5.465,0.056-10.645-0.644-15.309-4.146
	c1.381,3.954,2.745,7.911,4.148,11.857c1.865,5.253,5.564,6.95,10.734,4.936c8.532-3.328,17.062-6.666,25.588-10.009
	c1.785-0.7,3.553-1.438,5.328-2.159c-0.048-0.166-0.097-0.337-0.146-0.507C96.391,162.118,95.699,162.118,95.008,162.118z"/>
<path fill="#E2E2E2" d="M150.902,98.343c-22.901-0.01-45.805-0.004-68.709,0.002c-0.631,0-1.282,0.021-1.895,0.166
	c-1.916,0.449-2.788,1.715-2.681,3.662c0.12,2.194,1.508,3.229,4.42,3.233c11.491,0.013,22.983,0.006,34.474,0.006
	c11.572,0,23.145,0.009,34.717-0.01c2.992-0.005,4.26-1.164,4.183-3.664C155.336,99.404,153.982,98.343,150.902,98.343z"/>
<path fill="#E2E2E2" d="M151.408,119.78c-11.653-0.016-23.305-0.005-34.954-0.005c-11.654,0-23.306-0.013-34.957,0.01
	c-2.894,0.006-4.488,1.852-3.818,4.389c0.554,2.094,2.159,2.479,4.087,2.477c15.481-0.022,30.965-0.014,46.447-0.014
	c7.82,0,15.641,0.019,23.461-0.014c2.479-0.012,3.592-0.992,3.729-3.07C155.575,120.985,154.338,119.785,151.408,119.78z"/>
<path fill="#E2E2E2" d="M151.408,77.135c-5.266-0.019-10.528-0.005-15.793-0.005c-6.221,0-12.44-0.019-18.661,0.01
	c-2.787,0.018-4.326,1.735-3.812,4.217c0.463,2.221,2.123,2.811,4.125,2.814c5.66,0.007,11.322,0.002,16.986,0
	c5.742,0,11.484,0.038,17.227-0.017c2.689-0.024,4.013-1.355,3.941-3.712C155.354,78.158,154.161,77.146,151.408,77.135z"/>
<path fill="#E2E2E2" d="M151.324,34.487c-5.674-0.02-11.35-0.005-17.021-0.005c-5.674,0-11.348-0.01-17.021,0.005
	c-2.786,0.01-4.178,1.182-4.194,3.456c-0.019,2.322,1.258,3.484,4.147,3.494c11.427,0.032,22.854,0.032,34.281-0.01
	c2.73-0.01,3.908-1.151,3.908-3.441C155.424,35.604,154.161,34.496,151.324,34.487z"/>
<path fill="#E2E2E2" d="M117.189,62.76c5.75,0.021,11.502,0.008,17.254,0.008c5.675,0,11.347,0.017,17.019-0.01
	c2.713-0.01,3.914-1.076,3.957-3.382c0.041-2.335-1.131-3.491-3.815-3.501c-11.502-0.031-23.006-0.029-34.513,0
	c-2.75,0.007-3.969,1.098-4.002,3.346C113.051,61.523,114.438,62.751,117.189,62.76z"/>
<path fill="none" d="M33.116,99.506c3.395,4.394,3.764,4.894,0.672,8.082c2.189,6,4.376,12.002,6.567,18
	c1.569,4.293,3.172,8.574,4.763,12.86c0.112-0.03,0.227-0.063,0.339-0.102c0-13.047,0-26.104,0-39.178
	c-2.451-1.33-4.835-2.918-7.118-4.783C36.59,96.1,34.85,97.805,33.116,99.506z"/>
<path fill="none" d="M96.813,90.314c-9.486,10.592-23.424,15.548-37.131,13.58c0,11.938-0.005,23.872,0.004,35.809
	c0.004,6.063,2.363,8.407,8.4,8.407c32.355,0,64.713,0,97.068,0c5.795-0.002,8.304-2.516,8.304-8.315
	c0.002-37.07,0.002-74.139,0-111.21c0-5.936-2.515-8.451-8.444-8.455c-32.119-0.002-64.234-0.002-96.351,0.006
	c-0.632,0-1.208,0.023-1.761,0.064c10.285,0.351,20.447,4.5,28.315,12.367C111.07,48.417,111.859,73.506,96.813,90.314z"/>
<path fill="none" d="M23.936,56.016c-5.185,1.813-6.924,5.596-5.042,10.752c3.324,9.105,6.645,18.208,9.966,27.313
	c1.542-1.583,3.035-3.113,4.525-4.643C25.119,79.313,22.242,67.26,23.936,56.016z"/>
<path fill="none" d="M65.471,39.629c12.787-0.009,22.575,9.579,22.678,22.562c0.104,13.389-10.98,22.852-22.555,22.596
	c-2.039,0.056-4.019-0.212-5.915-0.717c0,0.01,0,0.02,0,0.03c0,2.237,0,4.476,0,6.711c1.87,0.368,3.796,0.535,5.753,0.479
	c14.811,0.479,29.258-11.623,29.27-29.01c0.01-16.249-12.66-29.06-28.928-29.194c-2.117-0.017-4.15,0.186-6.092,0.568
	c0,2.244,0,4.49,0,6.736C61.502,39.917,63.427,39.632,65.471,39.629z"/>
<path fill="none" d="M71.497,72.854c1.967,2.013,4.17,2.271,5.573,0.772c1.473-1.569,1.214-3.226-0.883-5.29
	c-2.016-1.979-4.063-3.927-6.217-6.007c2.317-2.263,4.396-4.246,6.42-6.284c2.012-2.029,2.131-3.699,0.467-5.28
	c-1.576-1.494-3.143-1.347-5.097,0.618c-2.075,2.083-4.073,4.243-6.143,6.408c-2.109-2.116-3.948-4.126-5.938-5.912
	c0,2.959,0,5.915,0,8.871c0.498,0.462,1,0.926,1.51,1.405c-0.52,0.499-1.018,0.977-1.51,1.448c0,3.05-0.001,6.099-0.001,9.147
	c1.904-1.907,3.779-3.882,5.979-6.142C67.693,68.795,69.553,70.867,71.497,72.854z"/>
<path fill="none" d="M45.458,83.239c0-3.584,0-7.162,0-10.754c-1.629-3.154-2.56-6.706-2.524-10.423
	c0.03-3.493,0.916-6.985,2.524-10.136c0-1.065,0-2.127,0-3.191c-0.716,0.195-1.172,0.296-1.608,0.443
	c-1.701,0.583-3.398,1.169-5.1,1.749c-1.5,3.532-2.325,7.33-2.354,11.148C36.332,70.239,39.88,77.837,45.458,83.239z"/>
<path fill="none" d="M95.008,162.118c-9.424,0-18.849-0.065-28.271,0.026c-5.465,0.056-10.645-0.644-15.309-4.146
	c1.381,3.954,2.745,7.911,4.148,11.857c1.865,5.253,5.564,6.95,10.734,4.936c8.532-3.328,17.062-6.666,25.588-10.009
	c1.785-0.7,3.553-1.438,5.328-2.159c-0.048-0.166-0.097-0.337-0.146-0.507C96.391,162.118,95.699,162.118,95.008,162.118z"/>
<path fill="#E2E2E2" d="M187.428,26.945c-0.027-11.48-9.072-20.749-20.395-20.769C132.918,6.117,98.805,6.095,64.691,6.2
	c-7.912,0.023-13.611,3.987-16.994,11.16c-1.185,2.515-1.766,5.14-2.01,7.811c6.621-3.573,13.946-5.222,21.211-4.973
	c0.554-0.041,1.131-0.064,1.762-0.064c32.115-0.008,64.232-0.008,96.351-0.006c5.931,0.004,8.443,2.521,8.443,8.455
	c0.002,37.072,0.002,74.141,0,111.209c0,5.803-2.509,8.314-8.302,8.316c-32.356,0-64.713,0-97.069,0
	c-6.037,0-8.396-2.343-8.399-8.407c-0.01-11.938-0.006-23.872-0.006-35.809c-4.838-0.693-9.648-2.245-14.223-4.725
	c0,13.074,0,26.131,0,39.178c-0.112,0.035-0.227,0.068-0.34,0.102c-1.588-4.286-3.193-8.567-4.762-12.86
	c-2.191-5.998-4.378-12-6.567-18c-0.392,0.403-0.83,0.844-1.333,1.348c-3.463,3.465-6.927,6.93-10.389,10.396
	c6.85,18.91,13.718,37.818,20.616,56.713c0.991,2.713,2.582,5.33,4.393,7.596c3.66,4.576,13.621,8.51,19.681,6.127
	c23.428-9.205,46.983-18.086,70.505-27.043c1.086-0.414,2.324-0.564,3.494-0.572c8.943-0.059,17.896,0.086,26.84-0.098
	c11.93-0.239,19.842-8.443,19.848-20.303c0.004-18.934,0.002-37.869,0-56.804C187.439,65.612,187.477,46.279,187.428,26.945z
	 M91.898,164.784c-8.526,3.343-17.056,6.681-25.588,10.009c-5.17,2.016-8.869,0.317-10.734-4.936
	c-1.403-3.946-2.768-7.903-4.148-11.857c4.664,3.502,9.844,4.2,15.309,4.146c9.423-0.096,18.848-0.027,28.271-0.027
	c0.691,0,1.383,0,2.072,0c0.05,0.17,0.099,0.341,0.146,0.507C95.452,163.346,93.684,164.084,91.898,164.784z"/>
<path fill="#E2E2E2" d="M27.081,93.768c0.342,0.332,0.704,0.646,1.101,1.007c0.231-0.234,0.45-0.46,0.677-0.693
	c-3.321-9.105-6.642-18.207-9.966-27.313c-1.882-5.156-0.143-8.939,5.042-10.752c0.953-6.329,3.352-12.399,7.066-17.729
	c-4.375,1.559-8.74,3.142-13.087,4.771C6.309,47.412,0.545,59.736,4.735,71.36c3.361,9.327,6.738,18.652,10.108,27.979
	c1.859-1.856,3.714-3.715,5.573-5.572C23.258,90.932,24.143,90.94,27.081,93.768z"/>
<path fill="#FFFFFF" d="M59.682,60.751c0,0.951,0,1.902,0,2.854c0.491-0.473,0.989-0.949,1.508-1.448
	C60.682,61.677,60.179,61.213,59.682,60.751z"/>
<g>
	<path fill="#D3D3D3" d="M40.653,91.699c-1.617,1.585-3.225,3.159-4.828,4.729c3.534,4.576,3.532,4.574-0.61,8.719
		c-6.12,6.119-12.233,12.25-18.358,18.365c-2.281,2.281-3.448,2.283-5.701,0.047c-2.371-2.355-4.739-4.713-7.088-7.088
		c-2.026-2.051-2.025-3.311,0.039-5.377c6.65-6.668,13.314-13.315,19.98-19.97c2.626-2.619,3.443-2.612,6.16,0.002
		c0.318,0.309,0.652,0.596,1.02,0.93c1.655-1.698,3.227-3.312,4.807-4.932c-14.071-17.241-11.28-40.527,3.772-54.05
		c15.458-13.893,38.729-13.183,53.387,1.475c14.658,14.652,15.388,37.85,1.476,53.383C81.182,103.035,57.867,105.76,40.653,91.699z
		 M65.697,88.836c13.69,0.444,27.047-10.744,27.058-26.818c0.008-15.02-11.703-26.861-26.741-26.985
		c-16.125-0.133-27.054,13.202-27.158,26.8C38.742,76.522,51.258,89.247,65.697,88.836z"/>
	<path fill="#D3D3D3" d="M65.848,82.824c-11.398,0.313-21.053-9.541-20.949-21.005c0.095-10.379,8.311-20.728,20.836-20.736
		c11.818-0.01,20.867,8.854,20.961,20.854C86.794,74.31,76.547,83.06,65.848,82.824z M65.87,57.872
		c-2.21-2.216-4.089-4.329-6.226-6.128c-0.824-0.693-2.367-1.164-3.357-0.898c-2.221,0.596-2.592,3.253-0.781,5.118
		c1.946,2.008,4.057,3.859,6.27,5.939c-2.217,2.146-4.147,3.962-6.021,5.833c-1.602,1.599-1.788,3.567-0.546,4.819
		c1.244,1.253,3.233,1.078,4.823-0.504c1.882-1.872,3.709-3.798,5.875-6.028c1.884,2.021,3.601,3.934,5.4,5.771
		c1.817,1.859,3.854,2.101,5.15,0.715c1.361-1.451,1.122-2.982-0.816-4.891c-1.863-1.83-3.754-3.63-5.746-5.554
		c2.143-2.092,4.063-3.925,5.934-5.809c1.861-1.878,1.971-3.422,0.433-4.88c-1.456-1.386-2.905-1.247-4.711,0.569
		C69.631,53.873,67.783,55.871,65.87,57.872z"/>
</g>
</svg>
