<?xml version="1.0" encoding="utf-8"?>
<!-- Generator: Adobe Illustrator 16.0.0, SVG Export Plug-In . SVG Version: 6.00 Build 0)  -->
<!DOCTYPE svg PUBLIC "-//W3C//DTD SVG 1.1//EN" "http://www.w3.org/Graphics/SVG/1.1/DTD/svg11.dtd">
<svg version="1.1" id="Layer_1" xmlns="http://www.w3.org/2000/svg" xmlns:xlink="http://www.w3.org/1999/xlink" x="0px" y="0px"
	 width="512px" height="512px" viewBox="0 0 512 512" enable-background="new 0 0 512 512" xml:space="preserve">
<path fill="#969696" d="M329.074,409.855C341.672,422.457,332.75,444,314.93,444H80c-44.184,0-80-35.816-80-80V148
	c0-6.184,0.707-12.207,2.043-17.988c3.523-15.273,22.539-20.648,33.625-9.563c4.875,4.875,6.879,11.91,5.34,18.629
	C40.348,141.949,40,144.934,40,148v26.121h45.055c5.301,0,10.391,2.105,14.141,5.859c12.598,12.598,3.676,34.02-14.141,34.02H40v150
	c0,22.09,17.91,40,40,40h234.93C320.234,404,325.324,406.105,329.074,409.855z M472,264.121v-50H242.406l189.871,189.871
	C454.207,403.84,472,385.961,472,364c0-11.047,8.953-20,20-20s20,8.953,20,20c0,32.313-19.27,60.191-46.91,72.805l41.051,41.051
	c7.813,7.813,7.813,20.477,0,28.285C502.238,510.047,497.121,512,492,512c-5.117,0-10.238-1.953-14.141-5.859l-472-472
	c-7.813-7.809-7.813-20.473,0-28.281c7.809-7.813,20.473-7.813,28.281,0L96.285,68H432c44.113,0,80,35.887,80,80v116.121
	c0,11.047-8.953,20-20,20S472,275.168,472,264.121z M472,174.121V148c0-22.059-17.945-40-40-40H136.285l66.121,66.121H472z"/>
</svg>
