<?xml version="1.0" encoding="utf-8"?>
<!-- Generator: Adobe Illustrator 16.0.0, SVG Export Plug-In . SVG Version: 6.00 Build 0)  -->
<!DOCTYPE svg PUBLIC "-//W3C//DTD SVG 1.1//EN" "http://www.w3.org/Graphics/SVG/1.1/DTD/svg11.dtd">
<svg version="1.1" id="Layer_1" xmlns="http://www.w3.org/2000/svg" xmlns:xlink="http://www.w3.org/1999/xlink" x="0px" y="0px"
	 width="206.041px" height="211.869px" viewBox="0 0 206.041 211.869" enable-background="new 0 0 206.041 211.869"
	 xml:space="preserve">
<linearGradient id="SVGID_1_" gradientUnits="userSpaceOnUse" x1="100.1206" y1="251.9277" x2="104.1206" y2="67.9282" gradientTransform="matrix(1 0 0 -1 0 212.8691)">
	<stop  offset="0" style="stop-color:#F48583"/>
	<stop  offset="0.9557" style="stop-color:#E85652"/>
</linearGradient>
<path fill="#f26e6a" d="M206.306,166.703c0,24.942-20.223,45.166-45.166,45.166H45.43c-24.944,0-45.166-20.224-45.166-45.166
	V46.312c0-24.942,20.222-45.166,45.166-45.166H161.14c24.943,0,45.166,20.224,45.166,45.166V166.703L206.306,166.703z"/>
<g>
	<path fill="#FFFFFF" d="M166.171,163.446c0,3.744-3.037,6.781-6.783,6.781H49.181c-3.747,0-6.783-3.037-6.783-6.781V60.427
		c0-3.748,3.037-6.785,6.783-6.785h110.207c3.747,0,6.783,3.037,6.783,6.785V163.446z"/>
</g>
<path fill="none" stroke="#FFFFFF" stroke-width="5" stroke-miterlimit="10" d="M72.198,63.393c0-17.72,14.366-32.086,32.086-32.086
	c17.721,0,32.086,14.366,32.086,32.086"/>
<linearGradient id="SVGID_2_" gradientUnits="userSpaceOnUse" x1="75.5" y1="96.8545" x2="138.1475" y2="96.8545" gradientTransform="matrix(1 0 0 -1 0 212.8691)">
	<stop  offset="0" style="stop-color:#F48583"/>
	<stop  offset="0.9557" style="stop-color:#E85652"/>
</linearGradient>
<path fill="#f26e6a" d="M135.998,91.018H77.651c-1.188,0-2.151,0.963-2.151,2.151v37.35c0,1.188,0.963,2.15,2.151,2.15
	h20.912v4.04h-5.12c-1.188,0-2.151,0.963-2.151,2.151c0,1.188,0.963,2.15,2.151,2.15h7.271h12.221h7.271
	c1.188,0,2.151-0.964,2.151-2.15c0-1.188-0.963-2.151-2.151-2.151h-5.12v-4.04h20.912c1.188,0,2.15-0.963,2.15-2.15v-37.35
	C138.149,91.98,137.187,91.018,135.998,91.018z M133.847,128.366h-2.447h-4.303h-3.529h-4.303H79.802V95.32h54.045V128.366
	L133.847,128.366z"/>
<linearGradient id="SVGID_3_" gradientUnits="userSpaceOnUse" x1="89.7012" y1="100.9336" x2="122.1953" y2="100.9336" gradientTransform="matrix(1 0 0 -1 0 212.8691)">
	<stop  offset="0" style="stop-color:#F48583"/>
	<stop  offset="0.9557" style="stop-color:#E85652"/>
</linearGradient>
<path fill="#f26e6a" d="M89.714,111.91c0.001,4.835,3.902,8.768,8.737,8.81h1.238v-3.23h-1.238
	c-2.998,0.818-6.09-0.949-6.906-3.948c-0.006-0.024-0.012-0.048-0.019-0.071c-0.84-3.037,0.919-6.185,3.946-7.059h0.618
	c0.775-0.17,1.578-0.17,2.353,0h3.005v17.162c-0.015,1.814,1.444,3.301,3.26,3.318v-23.879h-6.237
	c-4.871,0.024-8.796,3.993-8.77,8.863v0.002L89.714,111.91z M113.458,103.014h-1.236v3.405h1.236
	c2.991-0.816,6.077,0.945,6.893,3.936c0.008,0.021,0.014,0.047,0.021,0.068c0.834,3.026-0.919,6.161-3.935,7.034h-0.619
	c-0.774,0.17-1.577,0.17-2.353,0h-3.005v-17.16c0.016-1.815-1.443-3.301-3.26-3.318v23.913h6.236
	c4.914-0.076,8.834-4.121,8.758-9.033c-0.074-4.806-3.95-8.684-8.758-8.757L113.458,103.014z"/>
</svg>
