<?xml version="1.0" encoding="utf-8"?>
<!-- Generator: Adobe Illustrator 16.0.0, SVG Export Plug-In . SVG Version: 6.00 Build 0)  -->
<!DOCTYPE svg PUBLIC "-//W3C//DTD SVG 1.1//EN" "http://www.w3.org/Graphics/SVG/1.1/DTD/svg11.dtd">
<svg version="1.1" id="Capa_1" xmlns="http://www.w3.org/2000/svg" xmlns:xlink="http://www.w3.org/1999/xlink" x="0px" y="0px"
	 width="612px" height="589px" viewBox="0 99.5 612 589" enable-background="new 0 99.5 612 589" xml:space="preserve">
<g>
	<g>
		<path fill="#5D5D5D" d="M382.508,338.624h-19.126v-38.251c0-42.19-34.311-76.501-76.501-76.501
			c-42.191,0-76.502,34.311-76.502,76.501v38.251h-19.125c-10.558,0-19.125,8.568-19.125,19.125v153.003
			c0,10.558,8.568,19.126,19.125,19.126h191.254c10.557,0,19.125-8.568,19.125-19.126V357.749
			C401.633,347.192,393.064,338.624,382.508,338.624z M325.131,338.624H248.63v-38.251c0-21.076,17.175-38.25,38.251-38.25
			s38.25,17.174,38.25,38.25V338.624z"/>
	</g>
</g>
<g>
	<g>
		<path fill="#5D5D5D" d="M600.001,282.625c-9.754-3.902-20.923,0.841-24.824,10.672l-11.438,28.611
			C530.92,199.544,419.42,109.119,286.881,109.119C128.675,109.119,0,237.795,0,396s128.675,286.881,286.881,286.881
			c76.616,0,148.681-29.836,202.882-83.999c7.459-7.459,7.459-19.584,0-27.043s-19.585-7.459-27.043,0
			c-47.011,46.934-109.436,72.791-175.839,72.791c-137.091,0-248.63-111.539-248.63-248.63s111.539-248.63,248.63-248.63
			c119.38,0,219.329,84.611,243.16,196.991l-38.366-38.404c-7.459-7.458-19.584-7.458-27.043,0c-7.459,7.459-7.459,19.584,0,27.043
			l76.502,76.502c3.595,3.672,8.491,5.622,13.502,5.622c1.263,0,2.563-0.114,3.863-0.382c6.312-1.301,11.514-5.661,13.885-11.629
			l38.251-95.626C614.536,297.657,609.793,286.526,600.001,282.625z"/>
	</g>
</g>
</svg>
