<?xml version="1.0" encoding="utf-8"?>
<!-- Generator: Adobe Illustrator 16.0.0, SVG Export Plug-In . SVG Version: 6.00 Build 0)  -->
<!DOCTYPE svg PUBLIC "-//W3C//DTD SVG 1.1//EN" "http://www.w3.org/Graphics/SVG/1.1/DTD/svg11.dtd">
<svg version="1.1" id="Layer_1" xmlns="http://www.w3.org/2000/svg" xmlns:xlink="http://www.w3.org/1999/xlink" x="0px" y="0px"
	 width="206.041px" height="211.869px" viewBox="0 0 206.041 211.869" enable-background="new 0 0 206.041 211.869"
	 xml:space="preserve">
<linearGradient id="SVGID_1_" gradientUnits="userSpaceOnUse" x1="100.1206" y1="251.9277" x2="104.1206" y2="67.9282" gradientTransform="matrix(1 0 0 -1 0 212.8691)">
	<stop  offset="0" style="stop-color:#A89ECD"/>
	<stop  offset="0.9557" style="stop-color:#8371B3"/>
</linearGradient>
<path fill="#9983ff" d="M206.306,166.703c0,24.942-20.223,45.166-45.166,45.166H45.43c-24.944,0-45.166-20.224-45.166-45.166
	V46.312c0-24.942,20.222-45.166,45.166-45.166H161.14c24.943,0,45.166,20.224,45.166,45.166V166.703L206.306,166.703z"/>
<g>
	<g>
		<path fill="#FFFFFF" d="M166.171,163.446c0,3.744-3.037,6.781-6.783,6.781H49.181c-3.747,0-6.783-3.037-6.783-6.781V60.427
			c0-3.748,3.037-6.785,6.783-6.785h110.207c3.747,0,6.783,3.037,6.783,6.785V163.446z"/>
	</g>
</g>
<path fill="none" stroke="#FFFFFF" stroke-width="5" stroke-miterlimit="10" d="M72.198,63.393c0-17.72,14.366-32.086,32.086-32.086
	c17.721,0,32.086,14.366,32.086,32.086"/>
<g>
	<g>
		<g>
			
				<linearGradient id="SVGID_2_" gradientUnits="userSpaceOnUse" x1="79.5781" y1="108.2402" x2="115.9736" y2="108.2402" gradientTransform="matrix(1 0 0 -1 0 212.8691)">
				<stop  offset="0" style="stop-color:#A89ECD"/>
				<stop  offset="0.9557" style="stop-color:#8371B3"/>
			</linearGradient>
			<path fill="#9983ff" d="M96.332,119.968c1.243,0.117,2.48,0.082,3.689-0.097l1.246,2.794
				c1.354-0.266,2.691-0.68,3.983-1.256c1.292-0.573,2.493-1.289,3.595-2.119l-1.244-2.796c0.941-0.778,1.795-1.675,2.541-2.677
				l2.854,1.098c0.769-1.145,1.42-2.383,1.928-3.702c0.505-1.315,0.854-2.668,1.05-4.041l-2.859-1.101
				c0.117-1.241,0.082-2.477-0.098-3.687l2.781-1.239c-0.543-2.767-1.717-5.351-3.395-7.57l-2.762,1.231
				c-0.776-0.944-1.677-1.799-2.679-2.543l1.093-2.849c-1.14-0.778-2.379-1.428-3.699-1.937c-1.32-0.504-2.676-0.848-4.041-1.041
				l-1.094,2.855c-1.243-0.116-2.483-0.082-3.692,0.098l-1.245-2.795c-1.353,0.262-2.687,0.68-3.981,1.256
				c-1.294,0.574-2.493,1.289-3.596,2.119l1.243,2.796c-0.939,0.775-1.793,1.673-2.537,2.676l-2.859-1.095
				c-0.771,1.144-1.423,2.383-1.928,3.7c-0.505,1.318-0.854,2.669-1.049,4.042l2.859,1.097c-0.117,1.245-0.082,2.481,0.099,3.69
				l-2.78,1.238c0.544,2.768,1.715,5.354,3.394,7.571l2.763-1.232c0.776,0.943,1.674,1.8,2.678,2.545l-1.094,2.848
				c1.142,0.772,2.38,1.428,3.699,1.937c1.322,0.506,2.676,0.851,4.039,1.04L96.332,119.968z M94.806,112.376
				c-4.281-1.645-6.416-6.438-4.775-10.721c1.641-4.271,6.438-6.408,10.714-4.771c4.277,1.644,6.416,6.44,4.775,10.717
				C103.88,111.88,99.082,114.015,94.806,112.376z"/>
		</g>
	</g>
	<g>
		<g>
			
				<linearGradient id="SVGID_3_" gradientUnits="userSpaceOnUse" x1="107.8486" y1="86.3125" x2="130.3643" y2="86.3125" gradientTransform="matrix(1 0 0 -1 0 212.8691)">
				<stop  offset="0" style="stop-color:#A89ECD"/>
				<stop  offset="0.9557" style="stop-color:#8371B3"/>
			</linearGradient>
			<path fill="#9983ff" d="M119.104,135.442c0.556,0,1.098-0.058,1.623-0.154l1.237,2.145
				c1.974-0.521,3.738-1.549,5.134-2.959l-1.24-2.147c0.703-0.818,1.252-1.769,1.619-2.808h2.479
				c0.259-0.946,0.407-1.938,0.407-2.963c0-1.027-0.15-2.017-0.407-2.963h-2.479c-0.367-1.04-0.92-1.988-1.619-2.807l1.24-2.148
				c-1.396-1.41-3.162-2.438-5.134-2.957l-1.237,2.143c-0.528-0.098-1.067-0.154-1.623-0.154s-1.094,0.057-1.617,0.154l-1.24-2.143
				c-1.975,0.52-3.74,1.547-5.133,2.957l1.24,2.148c-0.703,0.818-1.252,1.767-1.619,2.807h-2.479
				c-0.257,0.944-0.407,1.936-0.407,2.963c0,1.024,0.15,2.017,0.407,2.963h2.479c0.367,1.035,0.916,1.985,1.619,2.808l-1.24,2.146
				c1.393,1.409,3.16,2.441,5.133,2.957l1.24-2.14C118.011,135.386,118.554,135.442,119.104,135.442z M114.959,126.556
				c0-2.291,1.856-4.148,4.146-4.148c2.293,0,4.149,1.857,4.149,4.148c0,2.288-1.856,4.147-4.149,4.147
				C116.817,130.703,114.959,128.844,114.959,126.556z"/>
		</g>
	</g>
</g>
</svg>
