<?xml version="1.0" encoding="utf-8"?>
<!-- Generator: Adobe Illustrator 16.0.0, SVG Export Plug-In . SVG Version: 6.00 Build 0)  -->
<!DOCTYPE svg PUBLIC "-//W3C//DTD SVG 1.1//EN" "http://www.w3.org/Graphics/SVG/1.1/DTD/svg11.dtd">
<svg version="1.1" id="Capa_1" xmlns="http://www.w3.org/2000/svg" xmlns:xlink="http://www.w3.org/1999/xlink" x="0px" y="0px"
	 width="166.964px" height="166.964px" viewBox="0 0 166.964 166.964" enable-background="new 0 0 166.964 166.964"
	 xml:space="preserve">
<g>
	<g>
		<g>
			<polygon fill="#E2E2E2" points="76.102,150.806 76.115,150.795 76.091,150.795 			"/>
			<path fill="#E2E2E2" d="M73.189,94.869h-0.158l-6.029-6.91c2.914,1.045,5.95,1.678,9.1,1.678c3.153,0,6.185-0.622,9.093-1.674
				l-6.028,6.906h-0.147l14.772,35.726l13.498-17.926l14.969,11.258l9.394-14.11c-8.872-11.258-22.85-21.306-39.317-25.478
				c11.901-8.01,20.104-23.801,20.104-38.018C112.436,26.251,96.161,9.982,76.102,9.982S39.773,26.251,39.773,46.319
				c0,14.217,8.194,30.008,20.099,38.017c-28.459,7.219-49.552,31.922-49.552,50.236c0,10.819,32.885,16.223,65.772,16.212
				l-18.417-18.41L73.189,94.869z"/>
			<path fill="#E2E2E2" d="M76.115,150.795c9.617-0.011,19.235-0.46,28.022-1.393l-15.205-11.432L76.115,150.795z"/>
			<g>
				<polygon fill="#D3D3D3" points="144.339,105.623 124.284,135.747 108.925,124.195 100.031,136.004 127.929,156.982 
					156.643,113.82 				"/>
			</g>
		</g>
	</g>
</g>
<path fill="#E2E2E2" d="M64.281,80.383c0,0,9.952-4.551,11.834-4.551c1.883,0,14.011,12.995,14.011,12.995s0.096,8.184,0,8.905
	s1.59,14.921,1.59,14.921l3.388,16.197l-6.921,9.87l-9.895,12.063l-4.372-0.007l-8.601-4.761l-13.47-13.406l0.632-4.238
	l4.869-29.599l6.704-16.886L64.281,80.383z"/>
<rect x="122.649" y="61.315" fill="#D3D3D3" width="44.315" height="7.333"/>
<rect x="122.649" y="47.982" fill="#D3D3D3" width="44.315" height="7.333"/>
</svg>
