<?xml version="1.0" encoding="utf-8"?>
<!-- Generator: Adobe Illustrator 16.0.0, SVG Export Plug-In . SVG Version: 6.00 Build 0)  -->
<!DOCTYPE svg PUBLIC "-//W3C//DTD SVG 1.1//EN" "http://www.w3.org/Graphics/SVG/1.1/DTD/svg11.dtd">
<svg version="1.1" id="Capa_1" xmlns="http://www.w3.org/2000/svg" xmlns:xlink="http://www.w3.org/1999/xlink" x="0px" y="0px"
	 width="612px" height="424.828px" viewBox="0 183.238 612 424.828" enable-background="new 0 183.238 612 424.828"
	 xml:space="preserve">
<path fill="#1666BF" d="M612,570.852c0,19.98-16.196,36.179-36.176,36.179H36.176C16.196,607.031,0,590.832,0,570.852V221.146
	c0-19.981,16.196-36.177,36.176-36.177h539.648c19.98,0,36.176,16.198,36.176,36.177V570.852L612,570.852z"/>
<path fill="#F79F1A" d="M135.835,398.433l-14.37-68.935c-2.457-9.506-9.604-12.334-18.536-12.708H37.046l-0.587,3.149
	C87.773,332.378,121.726,362.388,135.835,398.433z"/>
<g>
	<g>
		<polygon fill="#FEFEFE" points="288.494,318.176 245.925,318.176 219.339,474.196 261.837,474.196 		"/>
		<path fill="#FEFEFE" d="M161.78,474.039l66.949-155.757h-45.053l-41.648,106.416l-4.445-16.067
			c-8.164-19.33-31.497-47.15-58.888-64.664l38.07,130.125L161.78,474.039z"/>
		<path fill="#FEFEFE" d="M409.91,423.193c0.157-17.713-11.216-31.224-35.725-42.383c-14.895-7.208-23.974-12.014-23.864-19.328
			c0-6.462,7.688-13.403,24.346-13.403c13.938-0.214,23.975,2.83,31.824,5.98l3.847,1.763l5.769-33.8
			c-8.438-3.152-21.628-6.516-38.125-6.516c-42.023,0-71.604,21.146-71.871,51.475c-0.268,22.428,21.147,34.922,37.271,42.396
			c16.552,7.619,22.105,12.495,21.999,19.329c-0.106,10.451-13.19,15.217-25.417,15.217c-17.033,0-26.059-2.349-40.054-8.18
			l-5.438-2.498l-5.975,34.962c9.925,4.338,28.291,8.129,47.356,8.287C380.541,476.495,409.59,455.617,409.91,423.193z"/>
		<path fill="#FEFEFE" d="M460.474,450.812c4.859,0,48.27,0.054,54.466,0.054c1.281,5.433,5.18,23.386,5.18,23.386h39.458
			l-34.44-155.914h-32.838c-10.199,0-17.779,2.777-22.266,12.92l-63.167,142.994h44.695
			C451.558,474.251,458.818,455.031,460.474,450.812z M489.626,375.255c-0.21,0.427,3.526-9.023,5.662-14.897l2.882,13.454
			c0,0,8.119,37.272,9.826,45.068h-35.295C476.226,409.911,489.626,375.255,489.626,375.255z"/>
		<g>
			<path fill="#1666BF" d="M575.824,184.969H36.176C16.196,184.969,0,201.165,0,221.146v37.547h612v-37.547
				C612,201.165,595.805,184.969,575.824,184.969z"/>
		</g>
	</g>
</g>
<path fill="#1666BF" d="M575.824,607.031H36.176C16.196,607.031,0,590.834,0,570.854v-37.547h612v37.547
	C612,590.834,595.805,607.031,575.824,607.031z"/>
</svg>
